<mxfile host="app.diagrams.net" agent="Mozilla/5.0 (Windows NT 10.0; Win64; x64) AppleWebKit/537.36 (KHTML, like Gecko) Chrome/138.0.0.0 Safari/537.36" version="28.0.4">
  <diagram name="Seite-1" id="NnaUbBI8c6gvf4gTgLor">
    <mxGraphModel dx="2437" dy="1510" grid="0" gridSize="10" guides="1" tooltips="1" connect="1" arrows="1" fold="1" page="0" pageScale="1" pageWidth="827" pageHeight="1169" math="0" shadow="0">
      <root>
        <mxCell id="0" />
        <mxCell id="1" parent="0" />
        <mxCell id="Kahp-PfNMKC5cr8vrNRb-238" value="" style="rounded=1;whiteSpace=wrap;html=1;labelBackgroundColor=none;shadow=1;" parent="1" vertex="1">
          <mxGeometry x="-100" y="1642" width="1665" height="1711" as="geometry" />
        </mxCell>
        <mxCell id="k0LQRtw4PnIv3PbsmUtW-76" value="" style="rounded=1;whiteSpace=wrap;html=1;" parent="1" vertex="1">
          <mxGeometry x="241" y="1697" width="1055" height="54" as="geometry" />
        </mxCell>
        <mxCell id="Kahp-PfNMKC5cr8vrNRb-201" value="" style="shape=partialRectangle;whiteSpace=wrap;html=1;top=0;left=0;fillColor=none;" parent="1" vertex="1">
          <mxGeometry x="890" y="2082" width="345" height="304" as="geometry" />
        </mxCell>
        <mxCell id="Kahp-PfNMKC5cr8vrNRb-121" value="" style="rounded=1;whiteSpace=wrap;html=1;labelBackgroundColor=none;shadow=1;" parent="1" vertex="1">
          <mxGeometry x="-74" y="905" width="1623" height="736" as="geometry" />
        </mxCell>
        <mxCell id="UlAw6va3zdk-aPpLbyi_-46" value="" style="rounded=1;whiteSpace=wrap;html=1;labelBackgroundColor=none;shadow=1;" parent="1" vertex="1">
          <mxGeometry x="-71.5" y="171" width="1613" height="736" as="geometry" />
        </mxCell>
        <mxCell id="kSR36_n-EsBhzUZEjCBZ-10" value="" style="shape=process;whiteSpace=wrap;html=1;backgroundOutline=1;labelBackgroundColor=none;verticalAlign=middle;rounded=1;fillColor=#dae8fc;strokeColor=#6c8ebf;" parent="1" vertex="1">
          <mxGeometry x="-53.5" y="48" width="1595" height="123" as="geometry" />
        </mxCell>
        <mxCell id="kSR36_n-EsBhzUZEjCBZ-11" value="&lt;h3&gt;&lt;font face=&quot;Helvetica&quot; style=&quot;font-size: 79px;&quot;&gt;XNAT&lt;/font&gt;&lt;/h3&gt;" style="text;html=1;align=center;verticalAlign=middle;whiteSpace=wrap;rounded=1;fontSize=58;fontStyle=2;labelBackgroundColor=none;fontFamily=Georgia;" parent="1" vertex="1">
          <mxGeometry x="601" y="74" width="240" height="80" as="geometry" />
        </mxCell>
        <mxCell id="kSR36_n-EsBhzUZEjCBZ-16" value="&lt;font style=&quot;font-size: 19px;&quot;&gt;&lt;b&gt;Projekt&lt;/b&gt;&lt;/font&gt;" style="swimlane;fontStyle=0;childLayout=stackLayout;horizontal=1;startSize=30;horizontalStack=0;resizeParent=1;resizeParentMax=0;resizeLast=0;collapsible=1;marginBottom=0;whiteSpace=wrap;html=1;labelBackgroundColor=none;rounded=1;fillColor=#f8cecc;strokeColor=#b85450;" parent="1" vertex="1">
          <mxGeometry x="352.5" y="260" width="380" height="120" as="geometry">
            <mxRectangle x="350" y="260" width="80" height="30" as="alternateBounds" />
          </mxGeometry>
        </mxCell>
        <mxCell id="kSR36_n-EsBhzUZEjCBZ-18" value="Subjekt 1" style="text;strokeColor=none;fillColor=none;align=left;verticalAlign=middle;spacingLeft=4;spacingRight=4;overflow=hidden;points=[[0,0.5],[1,0.5]];portConstraint=eastwest;rotatable=0;whiteSpace=wrap;html=1;labelBackgroundColor=none;rounded=1;" parent="kSR36_n-EsBhzUZEjCBZ-16" vertex="1">
          <mxGeometry y="30" width="380" height="30" as="geometry" />
        </mxCell>
        <mxCell id="kSR36_n-EsBhzUZEjCBZ-19" value="Subjekt 2" style="text;strokeColor=none;fillColor=none;align=left;verticalAlign=middle;spacingLeft=4;spacingRight=4;overflow=hidden;points=[[0,0.5],[1,0.5]];portConstraint=eastwest;rotatable=0;whiteSpace=wrap;html=1;labelBackgroundColor=none;rounded=1;" parent="kSR36_n-EsBhzUZEjCBZ-16" vertex="1">
          <mxGeometry y="60" width="380" height="30" as="geometry" />
        </mxCell>
        <mxCell id="Kahp-PfNMKC5cr8vrNRb-34" value="&lt;b&gt;&lt;font style=&quot;font-size: 14px;&quot;&gt;Result_file&lt;/font&gt;&lt;/b&gt;" style="text;strokeColor=none;fillColor=none;align=left;verticalAlign=middle;spacingLeft=4;spacingRight=4;overflow=hidden;points=[[0,0.5],[1,0.5]];portConstraint=eastwest;rotatable=0;whiteSpace=wrap;html=1;labelBackgroundColor=none;rounded=1;" parent="kSR36_n-EsBhzUZEjCBZ-16" vertex="1">
          <mxGeometry y="90" width="380" height="30" as="geometry" />
        </mxCell>
        <mxCell id="kSR36_n-EsBhzUZEjCBZ-20" value="&lt;font style=&quot;font-size: 16px;&quot;&gt;&lt;b&gt;Subject 1&lt;/b&gt;&lt;/font&gt;" style="swimlane;fontStyle=0;childLayout=stackLayout;horizontal=1;startSize=30;horizontalStack=0;resizeParent=1;resizeParentMax=0;resizeLast=0;collapsible=1;marginBottom=0;whiteSpace=wrap;html=1;labelBackgroundColor=none;rounded=1;fillColor=#f8cecc;strokeColor=#b85450;" parent="1" vertex="1">
          <mxGeometry x="334" y="1003" width="140" height="120" as="geometry" />
        </mxCell>
        <mxCell id="kSR36_n-EsBhzUZEjCBZ-21" value="Ressource" style="text;strokeColor=none;fillColor=none;align=left;verticalAlign=middle;spacingLeft=4;spacingRight=4;overflow=hidden;points=[[0,0.5],[1,0.5]];portConstraint=eastwest;rotatable=0;whiteSpace=wrap;html=1;labelBackgroundColor=none;rounded=1;" parent="kSR36_n-EsBhzUZEjCBZ-20" vertex="1">
          <mxGeometry y="30" width="140" height="30" as="geometry" />
        </mxCell>
        <mxCell id="kSR36_n-EsBhzUZEjCBZ-22" value="files" style="text;strokeColor=none;fillColor=none;align=left;verticalAlign=middle;spacingLeft=4;spacingRight=4;overflow=hidden;points=[[0,0.5],[1,0.5]];portConstraint=eastwest;rotatable=0;whiteSpace=wrap;html=1;labelBackgroundColor=none;rounded=1;" parent="kSR36_n-EsBhzUZEjCBZ-20" vertex="1">
          <mxGeometry y="60" width="140" height="30" as="geometry" />
        </mxCell>
        <mxCell id="Kahp-PfNMKC5cr8vrNRb-123" value="result_file" style="text;strokeColor=none;fillColor=none;align=left;verticalAlign=middle;spacingLeft=4;spacingRight=4;overflow=hidden;points=[[0,0.5],[1,0.5]];portConstraint=eastwest;rotatable=0;whiteSpace=wrap;html=1;labelBackgroundColor=none;rounded=1;" parent="kSR36_n-EsBhzUZEjCBZ-20" vertex="1">
          <mxGeometry y="90" width="140" height="30" as="geometry" />
        </mxCell>
        <mxCell id="kSR36_n-EsBhzUZEjCBZ-24" value="&lt;b&gt;&lt;font style=&quot;font-size: 15px;&quot;&gt;Subject 2&lt;/font&gt;&lt;/b&gt;" style="swimlane;fontStyle=0;childLayout=stackLayout;horizontal=1;startSize=30;horizontalStack=0;resizeParent=1;resizeParentMax=0;resizeLast=0;collapsible=1;marginBottom=0;whiteSpace=wrap;html=1;labelBackgroundColor=none;rounded=1;fillColor=#f8cecc;strokeColor=#b85450;arcSize=21;" parent="1" vertex="1">
          <mxGeometry x="571" y="988" width="140" height="180" as="geometry" />
        </mxCell>
        <mxCell id="kSR36_n-EsBhzUZEjCBZ-26" value="Ressource" style="text;strokeColor=none;fillColor=none;align=left;verticalAlign=middle;spacingLeft=4;spacingRight=4;overflow=hidden;points=[[0,0.5],[1,0.5]];portConstraint=eastwest;rotatable=0;whiteSpace=wrap;html=1;labelBackgroundColor=none;rounded=1;" parent="kSR36_n-EsBhzUZEjCBZ-24" vertex="1">
          <mxGeometry y="30" width="140" height="30" as="geometry" />
        </mxCell>
        <mxCell id="kSR36_n-EsBhzUZEjCBZ-27" value="file1" style="text;strokeColor=none;fillColor=none;align=left;verticalAlign=middle;spacingLeft=4;spacingRight=4;overflow=hidden;points=[[0,0.5],[1,0.5]];portConstraint=eastwest;rotatable=0;whiteSpace=wrap;html=1;labelBackgroundColor=none;rounded=1;" parent="kSR36_n-EsBhzUZEjCBZ-24" vertex="1">
          <mxGeometry y="60" width="140" height="30" as="geometry" />
        </mxCell>
        <mxCell id="kSR36_n-EsBhzUZEjCBZ-25" value="file2" style="text;strokeColor=none;fillColor=none;align=left;verticalAlign=middle;spacingLeft=4;spacingRight=4;overflow=hidden;points=[[0,0.5],[1,0.5]];portConstraint=eastwest;rotatable=0;whiteSpace=wrap;html=1;labelBackgroundColor=none;rounded=1;" parent="kSR36_n-EsBhzUZEjCBZ-24" vertex="1">
          <mxGeometry y="90" width="140" height="30" as="geometry" />
        </mxCell>
        <mxCell id="Kahp-PfNMKC5cr8vrNRb-124" value="result_fil1" style="text;strokeColor=none;fillColor=none;align=left;verticalAlign=middle;spacingLeft=4;spacingRight=4;overflow=hidden;points=[[0,0.5],[1,0.5]];portConstraint=eastwest;rotatable=0;whiteSpace=wrap;html=1;labelBackgroundColor=none;rounded=1;" parent="kSR36_n-EsBhzUZEjCBZ-24" vertex="1">
          <mxGeometry y="120" width="140" height="30" as="geometry" />
        </mxCell>
        <mxCell id="Kahp-PfNMKC5cr8vrNRb-125" value="result_file2" style="text;strokeColor=none;fillColor=none;align=left;verticalAlign=middle;spacingLeft=4;spacingRight=4;overflow=hidden;points=[[0,0.5],[1,0.5]];portConstraint=eastwest;rotatable=0;whiteSpace=wrap;html=1;labelBackgroundColor=none;rounded=1;" parent="kSR36_n-EsBhzUZEjCBZ-24" vertex="1">
          <mxGeometry y="150" width="140" height="30" as="geometry" />
        </mxCell>
        <mxCell id="kSR36_n-EsBhzUZEjCBZ-44" value="Subjekt 1:MRT" style="swimlane;fontStyle=0;childLayout=stackLayout;horizontal=1;startSize=30;horizontalStack=0;resizeParent=1;resizeParentMax=0;resizeLast=0;collapsible=1;marginBottom=0;whiteSpace=wrap;html=1;shadow=1;labelBackgroundColor=none;rounded=1;fillColor=#fad9d5;strokeColor=#ae4132;" parent="1" vertex="1">
          <mxGeometry x="305" y="1765" width="140" height="90" as="geometry" />
        </mxCell>
        <mxCell id="kSR36_n-EsBhzUZEjCBZ-47" value="Scans&amp;nbsp;" style="text;strokeColor=none;fillColor=none;align=left;verticalAlign=middle;spacingLeft=4;spacingRight=4;overflow=hidden;points=[[0,0.5],[1,0.5]];portConstraint=eastwest;rotatable=0;whiteSpace=wrap;html=1;labelBackgroundColor=none;rounded=1;" parent="kSR36_n-EsBhzUZEjCBZ-44" vertex="1">
          <mxGeometry y="30" width="140" height="30" as="geometry" />
        </mxCell>
        <mxCell id="kSR36_n-EsBhzUZEjCBZ-45" value="Result_files" style="text;strokeColor=none;fillColor=none;align=left;verticalAlign=middle;spacingLeft=4;spacingRight=4;overflow=hidden;points=[[0,0.5],[1,0.5]];portConstraint=eastwest;rotatable=0;whiteSpace=wrap;html=1;labelBackgroundColor=none;rounded=1;" parent="kSR36_n-EsBhzUZEjCBZ-44" vertex="1">
          <mxGeometry y="60" width="140" height="30" as="geometry" />
        </mxCell>
        <mxCell id="kSR36_n-EsBhzUZEjCBZ-48" value="Subjekt 1: CT Session" style="swimlane;fontStyle=0;childLayout=stackLayout;horizontal=1;startSize=30;horizontalStack=0;resizeParent=1;resizeParentMax=0;resizeLast=0;collapsible=1;marginBottom=0;whiteSpace=wrap;html=1;labelBackgroundColor=none;rounded=1;fillColor=#fad9d5;strokeColor=#ae4132;" parent="1" vertex="1">
          <mxGeometry x="548" y="1765" width="140" height="90" as="geometry" />
        </mxCell>
        <mxCell id="kSR36_n-EsBhzUZEjCBZ-51" value="Scans&amp;nbsp; 2" style="text;strokeColor=none;fillColor=none;align=left;verticalAlign=middle;spacingLeft=4;spacingRight=4;overflow=hidden;points=[[0,0.5],[1,0.5]];portConstraint=eastwest;rotatable=0;whiteSpace=wrap;html=1;labelBackgroundColor=none;rounded=1;" parent="kSR36_n-EsBhzUZEjCBZ-48" vertex="1">
          <mxGeometry y="30" width="140" height="30" as="geometry" />
        </mxCell>
        <mxCell id="kSR36_n-EsBhzUZEjCBZ-49" value="Result_2" style="text;strokeColor=none;fillColor=none;align=left;verticalAlign=middle;spacingLeft=4;spacingRight=4;overflow=hidden;points=[[0,0.5],[1,0.5]];portConstraint=eastwest;rotatable=0;whiteSpace=wrap;html=1;labelBackgroundColor=none;rounded=1;" parent="kSR36_n-EsBhzUZEjCBZ-48" vertex="1">
          <mxGeometry y="60" width="140" height="30" as="geometry" />
        </mxCell>
        <mxCell id="kSR36_n-EsBhzUZEjCBZ-52" value="Subjekt 2 :MRT Session" style="swimlane;fontStyle=0;childLayout=stackLayout;horizontal=1;startSize=30;horizontalStack=0;resizeParent=1;resizeParentMax=0;resizeLast=0;collapsible=1;marginBottom=0;whiteSpace=wrap;html=1;labelBackgroundColor=none;rounded=1;fillColor=#fad9d5;strokeColor=#ae4132;" parent="1" vertex="1">
          <mxGeometry x="778" y="1765" width="140" height="90" as="geometry" />
        </mxCell>
        <mxCell id="kSR36_n-EsBhzUZEjCBZ-55" value="Scans 3" style="text;strokeColor=none;fillColor=none;align=left;verticalAlign=middle;spacingLeft=4;spacingRight=4;overflow=hidden;points=[[0,0.5],[1,0.5]];portConstraint=eastwest;rotatable=0;whiteSpace=wrap;html=1;labelBackgroundColor=none;rounded=1;" parent="kSR36_n-EsBhzUZEjCBZ-52" vertex="1">
          <mxGeometry y="30" width="140" height="30" as="geometry" />
        </mxCell>
        <mxCell id="kSR36_n-EsBhzUZEjCBZ-53" value="Result_3" style="text;strokeColor=none;fillColor=none;align=left;verticalAlign=middle;spacingLeft=4;spacingRight=4;overflow=hidden;points=[[0,0.5],[1,0.5]];portConstraint=eastwest;rotatable=0;whiteSpace=wrap;html=1;labelBackgroundColor=none;rounded=1;" parent="kSR36_n-EsBhzUZEjCBZ-52" vertex="1">
          <mxGeometry y="60" width="140" height="30" as="geometry" />
        </mxCell>
        <mxCell id="Kahp-PfNMKC5cr8vrNRb-21" value="" style="whiteSpace=wrap;html=1;aspect=fixed;fillColor=#ffe6cc;strokeColor=#d79b00;fillStyle=solid;rounded=1;shadow=1;" parent="1" vertex="1">
          <mxGeometry x="508" y="591" width="256" height="256" as="geometry" />
        </mxCell>
        <mxCell id="Kahp-PfNMKC5cr8vrNRb-22" value="" style="shape=note;whiteSpace=wrap;html=1;backgroundOutline=1;darkOpacity=0.05;" parent="1" vertex="1">
          <mxGeometry x="974" y="226" width="235" height="252" as="geometry" />
        </mxCell>
        <mxCell id="Kahp-PfNMKC5cr8vrNRb-29" value="&lt;h4&gt;JSON Command&lt;/h4&gt;" style="text;html=1;align=center;verticalAlign=middle;whiteSpace=wrap;rounded=0;" parent="1" vertex="1">
          <mxGeometry x="1048" y="249" width="75" height="30" as="geometry" />
        </mxCell>
        <mxCell id="Kahp-PfNMKC5cr8vrNRb-46" value="" style="shape=card;whiteSpace=wrap;html=1;fillColor=#f8cecc;strokeColor=#b85450;" parent="1" vertex="1">
          <mxGeometry x="990" y="294" width="184" height="170" as="geometry" />
        </mxCell>
        <mxCell id="Kahp-PfNMKC5cr8vrNRb-45" value="&lt;div&gt;&quot;&lt;b&gt;&lt;i&gt;&lt;font style=&quot;color: rgb(126, 166, 224);&quot;&gt;command-line&lt;/font&gt;&lt;/i&gt;&lt;/b&gt;&quot;: &quot;python /app/Skript.py /input/data.csv /output/result.csv&quot;&lt;/div&gt;&lt;div&gt;&lt;br&gt;&lt;/div&gt;" style="text;html=1;align=center;verticalAlign=middle;whiteSpace=wrap;rounded=0;" parent="1" vertex="1">
          <mxGeometry x="1034" y="314" width="88" height="83.5" as="geometry" />
        </mxCell>
        <mxCell id="Kahp-PfNMKC5cr8vrNRb-47" value="" style="shape=image;html=1;verticalAlign=top;verticalLabelPosition=bottom;labelBackgroundColor=#ffffff;imageAspect=0;aspect=fixed;image=https://cdn2.iconfinder.com/data/icons/boxicons-logos/24/bxl-docker-128.png" parent="1" vertex="1">
          <mxGeometry x="578" y="574" width="138" height="138" as="geometry" />
        </mxCell>
        <mxCell id="Kahp-PfNMKC5cr8vrNRb-50" value="&lt;font style=&quot;font-size: 18px;&quot;&gt;&lt;i&gt;Container läuft&amp;nbsp;&lt;/i&gt;&lt;/font&gt;" style="text;html=1;align=center;verticalAlign=middle;whiteSpace=wrap;rounded=0;" parent="1" vertex="1">
          <mxGeometry x="587" y="534" width="96" height="49" as="geometry" />
        </mxCell>
        <mxCell id="Kahp-PfNMKC5cr8vrNRb-53" value="&lt;div&gt;&amp;nbsp;&lt;font style=&quot;font-size: 18px;&quot;&gt;→ Liest: /input/file.csv&lt;/font&gt;&lt;/div&gt;&lt;div&gt;&lt;font style=&quot;font-size: 18px;&quot;&gt;&amp;nbsp; &amp;nbsp;→ Schreibt: /output/result.cs&lt;/font&gt;v&lt;/div&gt;" style="text;html=1;align=center;verticalAlign=middle;whiteSpace=wrap;rounded=0;" parent="1" vertex="1">
          <mxGeometry x="574" y="728" width="120" height="30" as="geometry" />
        </mxCell>
        <mxCell id="Kahp-PfNMKC5cr8vrNRb-57" value="" style="shape=partialRectangle;whiteSpace=wrap;html=1;bottom=0;right=0;fillColor=none;" parent="1" vertex="1">
          <mxGeometry x="181" y="324" width="171" height="314" as="geometry" />
        </mxCell>
        <mxCell id="Kahp-PfNMKC5cr8vrNRb-59" value="" style="shape=partialRectangle;whiteSpace=wrap;html=1;top=0;left=0;fillColor=none;direction=south;" parent="1" vertex="1">
          <mxGeometry x="181" y="638" width="329" height="139" as="geometry" />
        </mxCell>
        <mxCell id="Kahp-PfNMKC5cr8vrNRb-65" value="" style="shape=partialRectangle;whiteSpace=wrap;html=1;top=0;left=0;fillColor=none;" parent="1" vertex="1">
          <mxGeometry x="764" y="477" width="349" height="307" as="geometry" />
        </mxCell>
        <mxCell id="Kahp-PfNMKC5cr8vrNRb-67" value="&lt;font style=&quot;font-size: 18px;&quot;&gt;&lt;i style=&quot;&quot;&gt;wird von XNAT gespeichert auf Projekt Ebene&lt;/i&gt;&lt;/font&gt;" style="text;html=1;align=center;verticalAlign=middle;whiteSpace=wrap;rounded=0;rotation=90;" parent="1" vertex="1">
          <mxGeometry x="58" y="506" width="300" height="90" as="geometry" />
        </mxCell>
        <mxCell id="Kahp-PfNMKC5cr8vrNRb-68" value="" style="shape=partialRectangle;whiteSpace=wrap;html=1;bottom=0;right=0;fillColor=none;" parent="1" vertex="1">
          <mxGeometry x="430" y="410" width="544" height="129" as="geometry" />
        </mxCell>
        <mxCell id="Kahp-PfNMKC5cr8vrNRb-70" value="" style="endArrow=none;html=1;rounded=0;entryX=0.5;entryY=1;entryDx=0;entryDy=0;" parent="1" edge="1">
          <mxGeometry width="50" height="50" relative="1" as="geometry">
            <mxPoint x="428" y="775" as="sourcePoint" />
            <mxPoint x="428.49999999999955" y="660" as="targetPoint" />
            <Array as="points" />
          </mxGeometry>
        </mxCell>
        <mxCell id="Kahp-PfNMKC5cr8vrNRb-72" style="edgeStyle=orthogonalEdgeStyle;rounded=0;orthogonalLoop=1;jettySize=auto;html=1;exitX=0.5;exitY=1;exitDx=0;exitDy=0;" parent="1" edge="1">
          <mxGeometry relative="1" as="geometry">
            <mxPoint x="428.49999999999955" y="660" as="sourcePoint" />
            <mxPoint x="428.49999999999955" y="660" as="targetPoint" />
          </mxGeometry>
        </mxCell>
        <mxCell id="Kahp-PfNMKC5cr8vrNRb-94" value="" style="whiteSpace=wrap;html=1;aspect=fixed;fillColor=#ffe6cc;strokeColor=#d79b00;fillStyle=solid;rounded=1;" parent="1" vertex="1">
          <mxGeometry x="656" y="1333" width="256" height="256" as="geometry" />
        </mxCell>
        <mxCell id="Kahp-PfNMKC5cr8vrNRb-95" value="" style="shape=note;whiteSpace=wrap;html=1;backgroundOutline=1;darkOpacity=0.05;" parent="1" vertex="1">
          <mxGeometry x="955" y="941" width="235" height="252" as="geometry" />
        </mxCell>
        <mxCell id="Kahp-PfNMKC5cr8vrNRb-99" value="&lt;h4&gt;JSON Command&lt;/h4&gt;" style="text;html=1;align=center;verticalAlign=middle;whiteSpace=wrap;rounded=0;" parent="1" vertex="1">
          <mxGeometry x="1038.25" y="966" width="75" height="30" as="geometry" />
        </mxCell>
        <mxCell id="Kahp-PfNMKC5cr8vrNRb-100" value="" style="shape=card;whiteSpace=wrap;html=1;fillColor=#f8cecc;strokeColor=#b85450;" parent="1" vertex="1">
          <mxGeometry x="984" y="1003" width="175" height="168" as="geometry" />
        </mxCell>
        <mxCell id="Kahp-PfNMKC5cr8vrNRb-101" value="&lt;div&gt;&quot;&lt;b&gt;&lt;i&gt;&lt;font style=&quot;color: rgb(126, 166, 224);&quot;&gt;command-line&lt;/font&gt;&lt;/i&gt;&lt;/b&gt;&quot;: &quot;python /app/Skript.py /input/data.csv /output/result.csv&quot;&lt;/div&gt;&lt;div&gt;&lt;br&gt;&lt;/div&gt;" style="text;html=1;align=center;verticalAlign=middle;whiteSpace=wrap;rounded=0;" parent="1" vertex="1">
          <mxGeometry x="1028" y="1025.25" width="88" height="83.5" as="geometry" />
        </mxCell>
        <mxCell id="Kahp-PfNMKC5cr8vrNRb-102" value="" style="shape=image;html=1;verticalAlign=top;verticalLabelPosition=bottom;labelBackgroundColor=#ffffff;imageAspect=0;aspect=fixed;image=https://cdn2.iconfinder.com/data/icons/boxicons-logos/24/bxl-docker-128.png" parent="1" vertex="1">
          <mxGeometry x="715" y="1333" width="138" height="138" as="geometry" />
        </mxCell>
        <mxCell id="Kahp-PfNMKC5cr8vrNRb-103" value="&lt;font style=&quot;font-size: 18px;&quot;&gt;&lt;i&gt;Container läuft&amp;nbsp;&lt;/i&gt;&lt;/font&gt;" style="text;html=1;align=center;verticalAlign=middle;whiteSpace=wrap;rounded=0;" parent="1" vertex="1">
          <mxGeometry x="742" y="1284" width="96" height="49" as="geometry" />
        </mxCell>
        <mxCell id="Kahp-PfNMKC5cr8vrNRb-104" value="&lt;div&gt;&amp;nbsp;&lt;font style=&quot;font-size: 18px;&quot;&gt;→ Liest: /input/file.csv&lt;/font&gt;&lt;/div&gt;&lt;div&gt;&lt;font style=&quot;font-size: 18px;&quot;&gt;&amp;nbsp; &amp;nbsp;→ Schreibt: /output/result.cs&lt;/font&gt;v&lt;/div&gt;" style="text;html=1;align=center;verticalAlign=middle;whiteSpace=wrap;rounded=0;" parent="1" vertex="1">
          <mxGeometry x="718" y="1495" width="120" height="30" as="geometry" />
        </mxCell>
        <mxCell id="Kahp-PfNMKC5cr8vrNRb-105" value="" style="shape=partialRectangle;whiteSpace=wrap;html=1;bottom=0;right=0;fillColor=none;" parent="1" vertex="1">
          <mxGeometry x="159" y="1045" width="171" height="314" as="geometry" />
        </mxCell>
        <mxCell id="Kahp-PfNMKC5cr8vrNRb-106" value="" style="shape=partialRectangle;whiteSpace=wrap;html=1;top=0;left=0;fillColor=none;direction=south;" parent="1" vertex="1">
          <mxGeometry x="159" y="1353" width="315" height="136" as="geometry" />
        </mxCell>
        <mxCell id="Kahp-PfNMKC5cr8vrNRb-109" value="" style="endArrow=none;html=1;rounded=0;entryX=0;entryY=0.633;entryDx=0;entryDy=0;entryPerimeter=0;" parent="1" edge="1">
          <mxGeometry width="50" height="50" relative="1" as="geometry">
            <mxPoint x="472" y="1489" as="sourcePoint" />
            <mxPoint x="656" y="1489.0480000000002" as="targetPoint" />
          </mxGeometry>
        </mxCell>
        <mxCell id="Kahp-PfNMKC5cr8vrNRb-110" value="" style="shape=partialRectangle;whiteSpace=wrap;html=1;top=0;left=0;fillColor=none;" parent="1" vertex="1">
          <mxGeometry x="910" y="1194" width="181" height="311.5" as="geometry" />
        </mxCell>
        <mxCell id="Kahp-PfNMKC5cr8vrNRb-111" value="" style="ellipse;whiteSpace=wrap;html=1;aspect=fixed;" parent="1" vertex="1">
          <mxGeometry x="1020" y="1394" width="161" height="161" as="geometry" />
        </mxCell>
        <mxCell id="Kahp-PfNMKC5cr8vrNRb-112" value="&lt;div&gt;&lt;b&gt;&lt;i&gt;&lt;font style=&quot;font-size: 17px;&quot;&gt;mounted to&lt;/font&gt;&lt;/i&gt;&lt;/b&gt;&lt;/div&gt;&lt;div&gt;&lt;font style=&quot;font-size: 17px;&quot;&gt;&lt;b style=&quot;&quot;&gt;&lt;i&gt;&amp;nbsp; &amp;nbsp;Container: /input/data.cs&lt;/i&gt;&lt;/b&gt;v&lt;/font&gt;&lt;/div&gt;" style="text;html=1;align=center;verticalAlign=middle;whiteSpace=wrap;rounded=0;" parent="1" vertex="1">
          <mxGeometry x="1059.5" y="1434" width="88" height="71.5" as="geometry" />
        </mxCell>
        <mxCell id="Kahp-PfNMKC5cr8vrNRb-113" value="&lt;font style=&quot;font-size: 16px;&quot;&gt;wird von XNAT gespeichert als Resource auf Subjekt-Ebene&lt;/font&gt;" style="text;html=1;align=center;verticalAlign=middle;whiteSpace=wrap;rounded=0;rotation=90;" parent="1" vertex="1">
          <mxGeometry x="-111.25" y="1207.25" width="428.5" height="110" as="geometry" />
        </mxCell>
        <mxCell id="Kahp-PfNMKC5cr8vrNRb-114" value="" style="shape=partialRectangle;whiteSpace=wrap;html=1;bottom=0;right=0;fillColor=none;" parent="1" vertex="1">
          <mxGeometry x="411" y="1177.5" width="544" height="129" as="geometry" />
        </mxCell>
        <mxCell id="Kahp-PfNMKC5cr8vrNRb-116" value="" style="endArrow=none;html=1;rounded=0;entryX=0.5;entryY=1;entryDx=0;entryDy=0;exitX=0.994;exitY=0.212;exitDx=0;exitDy=0;exitPerimeter=0;" parent="1" source="Kahp-PfNMKC5cr8vrNRb-106" edge="1">
          <mxGeometry width="50" height="50" relative="1" as="geometry">
            <mxPoint x="407" y="1445" as="sourcePoint" />
            <mxPoint x="406.50000000000045" y="1381" as="targetPoint" />
            <Array as="points" />
          </mxGeometry>
        </mxCell>
        <mxCell id="Kahp-PfNMKC5cr8vrNRb-118" style="edgeStyle=orthogonalEdgeStyle;rounded=0;orthogonalLoop=1;jettySize=auto;html=1;exitX=0.5;exitY=1;exitDx=0;exitDy=0;" parent="1" edge="1">
          <mxGeometry relative="1" as="geometry">
            <mxPoint x="406.50000000000045" y="1381" as="sourcePoint" />
            <mxPoint x="406.50000000000045" y="1381" as="targetPoint" />
          </mxGeometry>
        </mxCell>
        <mxCell id="Kahp-PfNMKC5cr8vrNRb-122" value="" style="endArrow=none;html=1;rounded=0;entryX=-0.003;entryY=0.116;entryDx=0;entryDy=0;entryPerimeter=0;" parent="1" target="kSR36_n-EsBhzUZEjCBZ-27" edge="1">
          <mxGeometry width="50" height="50" relative="1" as="geometry">
            <mxPoint x="475" y="1053" as="sourcePoint" />
            <mxPoint x="525" y="1003" as="targetPoint" />
          </mxGeometry>
        </mxCell>
        <mxCell id="Kahp-PfNMKC5cr8vrNRb-137" value="" style="whiteSpace=wrap;html=1;aspect=fixed;fillColor=#ffe6cc;strokeColor=#d79b00;fillStyle=solid;rounded=1;" parent="1" vertex="1">
          <mxGeometry x="629.5" y="2296" width="256" height="256" as="geometry" />
        </mxCell>
        <mxCell id="Kahp-PfNMKC5cr8vrNRb-138" value="" style="shape=note;whiteSpace=wrap;html=1;backgroundOutline=1;darkOpacity=0.05;" parent="1" vertex="1">
          <mxGeometry x="984.5" y="2566" width="215" height="252" as="geometry" />
        </mxCell>
        <mxCell id="Kahp-PfNMKC5cr8vrNRb-142" value="&lt;h4&gt;JSON Command&lt;/h4&gt;" style="text;html=1;align=center;verticalAlign=middle;whiteSpace=wrap;rounded=0;" parent="1" vertex="1">
          <mxGeometry x="1050.5" y="2571" width="75" height="30" as="geometry" />
        </mxCell>
        <mxCell id="Kahp-PfNMKC5cr8vrNRb-143" value="&lt;div&gt;&lt;br/&gt;&lt;/div&gt;" style="shape=card;whiteSpace=wrap;html=1;fillColor=#f8cecc;strokeColor=#b85450;" parent="1" vertex="1">
          <mxGeometry x="995" y="2613" width="189" height="192" as="geometry" />
        </mxCell>
        <mxCell id="Kahp-PfNMKC5cr8vrNRb-144" value="&lt;div&gt;&quot;&lt;b&gt;&lt;i&gt;&lt;font style=&quot;color: rgb(126, 166, 224);&quot;&gt;command-line&lt;/font&gt;&lt;/i&gt;&lt;/b&gt;&quot;: &quot;python /app/Skript.py /input/data.csv /output/result.csv&quot;&lt;/div&gt;&lt;div&gt;&lt;br&gt;&lt;/div&gt;" style="text;html=1;align=center;verticalAlign=middle;whiteSpace=wrap;rounded=0;" parent="1" vertex="1">
          <mxGeometry x="1044" y="2638" width="88" height="83.5" as="geometry" />
        </mxCell>
        <mxCell id="Kahp-PfNMKC5cr8vrNRb-145" value="" style="shape=image;html=1;verticalAlign=top;verticalLabelPosition=bottom;labelBackgroundColor=#ffffff;imageAspect=0;aspect=fixed;image=https://cdn2.iconfinder.com/data/icons/boxicons-logos/24/bxl-docker-128.png" parent="1" vertex="1">
          <mxGeometry x="680" y="2305" width="138" height="138" as="geometry" />
        </mxCell>
        <mxCell id="Kahp-PfNMKC5cr8vrNRb-146" value="&lt;font style=&quot;font-size: 18px;&quot;&gt;&lt;i&gt;Container läuft&amp;nbsp;&lt;/i&gt;&lt;/font&gt;" style="text;html=1;align=center;verticalAlign=middle;whiteSpace=wrap;rounded=0;" parent="1" vertex="1">
          <mxGeometry x="699" y="2571" width="96" height="49" as="geometry" />
        </mxCell>
        <mxCell id="Kahp-PfNMKC5cr8vrNRb-147" value="&lt;div&gt;&amp;nbsp;&lt;font style=&quot;font-size: 18px;&quot;&gt;→ Liest: /input/file.csv&lt;/font&gt;&lt;/div&gt;&lt;div&gt;&lt;font style=&quot;font-size: 18px;&quot;&gt;&amp;nbsp; &amp;nbsp;→ Schreibt: /output/result.cs&lt;/font&gt;v&lt;/div&gt;" style="text;html=1;align=center;verticalAlign=middle;whiteSpace=wrap;rounded=0;" parent="1" vertex="1">
          <mxGeometry x="683" y="2467" width="120" height="30" as="geometry" />
        </mxCell>
        <mxCell id="Kahp-PfNMKC5cr8vrNRb-154" value="" style="ellipse;whiteSpace=wrap;html=1;aspect=fixed;" parent="1" vertex="1">
          <mxGeometry x="1001" y="2305" width="161" height="161" as="geometry" />
        </mxCell>
        <mxCell id="Kahp-PfNMKC5cr8vrNRb-155" value="&lt;div&gt;&lt;b&gt;&lt;i&gt;&lt;font style=&quot;font-size: 17px;&quot;&gt;mounted to&lt;/font&gt;&lt;/i&gt;&lt;/b&gt;&lt;/div&gt;&lt;div&gt;&lt;font style=&quot;font-size: 17px;&quot;&gt;&lt;b style=&quot;&quot;&gt;&lt;i&gt;&amp;nbsp; &amp;nbsp;Container: /input/data.cs&lt;/i&gt;&lt;/b&gt;v&lt;/font&gt;&lt;/div&gt;" style="text;html=1;align=center;verticalAlign=middle;whiteSpace=wrap;rounded=0;" parent="1" vertex="1">
          <mxGeometry x="1043" y="2350" width="88" height="71.5" as="geometry" />
        </mxCell>
        <mxCell id="Kahp-PfNMKC5cr8vrNRb-156" value="&lt;font style=&quot;font-size: 16px;&quot;&gt;wird von XNAT gespeichert als Resource auf Session -Ebene&lt;/font&gt;" style="text;html=1;align=center;verticalAlign=middle;whiteSpace=wrap;rounded=0;rotation=90;" parent="1" vertex="1">
          <mxGeometry x="-264.75" y="2075" width="582" height="110" as="geometry" />
        </mxCell>
        <mxCell id="Kahp-PfNMKC5cr8vrNRb-159" value="" style="endArrow=none;html=1;rounded=0;entryX=0.5;entryY=1;entryDx=0;entryDy=0;exitX=0.461;exitY=0.017;exitDx=0;exitDy=0;exitPerimeter=0;" parent="1" edge="1">
          <mxGeometry width="50" height="50" relative="1" as="geometry">
            <mxPoint x="463.37699999999995" y="2351.3600000000006" as="sourcePoint" />
            <mxPoint x="464" y="2281" as="targetPoint" />
            <Array as="points" />
          </mxGeometry>
        </mxCell>
        <mxCell id="Kahp-PfNMKC5cr8vrNRb-161" style="edgeStyle=orthogonalEdgeStyle;rounded=0;orthogonalLoop=1;jettySize=auto;html=1;exitX=0.5;exitY=1;exitDx=0;exitDy=0;" parent="1" edge="1">
          <mxGeometry relative="1" as="geometry">
            <mxPoint x="464" y="2281" as="sourcePoint" />
            <mxPoint x="464" y="2281" as="targetPoint" />
          </mxGeometry>
        </mxCell>
        <mxCell id="UlAw6va3zdk-aPpLbyi_-16" value="Scans 1" style="swimlane;fontStyle=0;childLayout=stackLayout;horizontal=1;startSize=30;horizontalStack=0;resizeParent=1;resizeParentMax=0;resizeLast=0;collapsible=1;marginBottom=0;whiteSpace=wrap;html=1;labelBackgroundColor=none;rounded=1;arcSize=50;fillColor=#fad9d5;strokeColor=#ae4132;" parent="1" vertex="1">
          <mxGeometry x="332" y="3102" width="130" height="110" as="geometry" />
        </mxCell>
        <mxCell id="UlAw6va3zdk-aPpLbyi_-17" value="Item 1" style="text;strokeColor=none;fillColor=none;align=left;verticalAlign=middle;spacingLeft=4;spacingRight=4;overflow=hidden;points=[[0,0.5],[1,0.5]];portConstraint=eastwest;rotatable=0;whiteSpace=wrap;html=1;labelBackgroundColor=none;rounded=1;" parent="UlAw6va3zdk-aPpLbyi_-16" vertex="1">
          <mxGeometry y="30" width="130" height="30" as="geometry" />
        </mxCell>
        <mxCell id="UlAw6va3zdk-aPpLbyi_-18" value="Item 2" style="text;strokeColor=none;fillColor=none;align=left;verticalAlign=middle;spacingLeft=4;spacingRight=4;overflow=hidden;points=[[0,0.5],[1,0.5]];portConstraint=eastwest;rotatable=0;whiteSpace=wrap;html=1;labelBackgroundColor=none;rounded=1;" parent="UlAw6va3zdk-aPpLbyi_-16" vertex="1">
          <mxGeometry y="60" width="130" height="30" as="geometry" />
        </mxCell>
        <mxCell id="UlAw6va3zdk-aPpLbyi_-19" value="Item 3" style="text;strokeColor=none;fillColor=none;align=left;verticalAlign=middle;spacingLeft=4;spacingRight=4;overflow=hidden;points=[[0,0.5],[1,0.5]];portConstraint=eastwest;rotatable=0;whiteSpace=wrap;html=1;labelBackgroundColor=none;rounded=1;" parent="UlAw6va3zdk-aPpLbyi_-16" vertex="1">
          <mxGeometry y="90" width="130" height="20" as="geometry" />
        </mxCell>
        <mxCell id="UlAw6va3zdk-aPpLbyi_-20" value="Scans 2" style="swimlane;fontStyle=0;childLayout=stackLayout;horizontal=1;startSize=30;horizontalStack=0;resizeParent=1;resizeParentMax=0;resizeLast=0;collapsible=1;marginBottom=0;whiteSpace=wrap;html=1;labelBackgroundColor=none;rounded=1;arcSize=44;fillColor=#fad9d5;strokeColor=#ae4132;" parent="1" vertex="1">
          <mxGeometry x="577" y="3102" width="140" height="120" as="geometry" />
        </mxCell>
        <mxCell id="UlAw6va3zdk-aPpLbyi_-21" value="Item 1" style="text;strokeColor=none;fillColor=none;align=left;verticalAlign=middle;spacingLeft=4;spacingRight=4;overflow=hidden;points=[[0,0.5],[1,0.5]];portConstraint=eastwest;rotatable=0;whiteSpace=wrap;html=1;labelBackgroundColor=none;rounded=1;" parent="UlAw6va3zdk-aPpLbyi_-20" vertex="1">
          <mxGeometry y="30" width="140" height="30" as="geometry" />
        </mxCell>
        <mxCell id="UlAw6va3zdk-aPpLbyi_-22" value="Item 2" style="text;strokeColor=none;fillColor=none;align=left;verticalAlign=middle;spacingLeft=4;spacingRight=4;overflow=hidden;points=[[0,0.5],[1,0.5]];portConstraint=eastwest;rotatable=0;whiteSpace=wrap;html=1;labelBackgroundColor=none;rounded=1;" parent="UlAw6va3zdk-aPpLbyi_-20" vertex="1">
          <mxGeometry y="60" width="140" height="30" as="geometry" />
        </mxCell>
        <mxCell id="UlAw6va3zdk-aPpLbyi_-23" value="Item 3" style="text;strokeColor=none;fillColor=none;align=left;verticalAlign=middle;spacingLeft=4;spacingRight=4;overflow=hidden;points=[[0,0.5],[1,0.5]];portConstraint=eastwest;rotatable=0;whiteSpace=wrap;html=1;labelBackgroundColor=none;rounded=1;" parent="UlAw6va3zdk-aPpLbyi_-20" vertex="1">
          <mxGeometry y="90" width="140" height="30" as="geometry" />
        </mxCell>
        <mxCell id="UlAw6va3zdk-aPpLbyi_-24" value="Scans 3" style="swimlane;fontStyle=0;childLayout=stackLayout;horizontal=1;startSize=20;horizontalStack=0;resizeParent=1;resizeParentMax=0;resizeLast=0;collapsible=1;marginBottom=0;whiteSpace=wrap;html=1;labelBackgroundColor=none;rounded=1;arcSize=48;fillColor=#fad9d5;strokeColor=#ae4132;" parent="1" vertex="1">
          <mxGeometry x="831" y="3102" width="140" height="110" as="geometry" />
        </mxCell>
        <mxCell id="UlAw6va3zdk-aPpLbyi_-25" value="Item 1" style="text;strokeColor=none;fillColor=none;align=left;verticalAlign=middle;spacingLeft=4;spacingRight=4;overflow=hidden;points=[[0,0.5],[1,0.5]];portConstraint=eastwest;rotatable=0;whiteSpace=wrap;html=1;labelBackgroundColor=none;rounded=1;" parent="UlAw6va3zdk-aPpLbyi_-24" vertex="1">
          <mxGeometry y="20" width="140" height="30" as="geometry" />
        </mxCell>
        <mxCell id="UlAw6va3zdk-aPpLbyi_-26" value="Item 2" style="text;strokeColor=none;fillColor=none;align=left;verticalAlign=middle;spacingLeft=4;spacingRight=4;overflow=hidden;points=[[0,0.5],[1,0.5]];portConstraint=eastwest;rotatable=0;whiteSpace=wrap;html=1;labelBackgroundColor=none;rounded=1;" parent="UlAw6va3zdk-aPpLbyi_-24" vertex="1">
          <mxGeometry y="50" width="140" height="30" as="geometry" />
        </mxCell>
        <mxCell id="UlAw6va3zdk-aPpLbyi_-27" value="Item 3" style="text;strokeColor=none;fillColor=none;align=left;verticalAlign=middle;spacingLeft=4;spacingRight=4;overflow=hidden;points=[[0,0.5],[1,0.5]];portConstraint=eastwest;rotatable=0;whiteSpace=wrap;html=1;labelBackgroundColor=none;rounded=1;" parent="UlAw6va3zdk-aPpLbyi_-24" vertex="1">
          <mxGeometry y="80" width="140" height="30" as="geometry" />
        </mxCell>
        <mxCell id="UlAw6va3zdk-aPpLbyi_-28" value="Scans 4" style="swimlane;fontStyle=0;childLayout=stackLayout;horizontal=1;startSize=30;horizontalStack=0;resizeParent=1;resizeParentMax=0;resizeLast=0;collapsible=1;marginBottom=0;whiteSpace=wrap;html=1;labelBackgroundColor=none;rounded=1;fillColor=#fad9d5;strokeColor=#ae4132;" parent="1" vertex="1">
          <mxGeometry x="1088" y="3102" width="142" height="120" as="geometry" />
        </mxCell>
        <mxCell id="UlAw6va3zdk-aPpLbyi_-29" value="Item 1" style="text;strokeColor=none;fillColor=none;align=left;verticalAlign=middle;spacingLeft=4;spacingRight=4;overflow=hidden;points=[[0,0.5],[1,0.5]];portConstraint=eastwest;rotatable=0;whiteSpace=wrap;html=1;labelBackgroundColor=none;rounded=1;" parent="UlAw6va3zdk-aPpLbyi_-28" vertex="1">
          <mxGeometry y="30" width="142" height="30" as="geometry" />
        </mxCell>
        <mxCell id="UlAw6va3zdk-aPpLbyi_-30" value="Item 2" style="text;strokeColor=none;fillColor=none;align=left;verticalAlign=middle;spacingLeft=4;spacingRight=4;overflow=hidden;points=[[0,0.5],[1,0.5]];portConstraint=eastwest;rotatable=0;whiteSpace=wrap;html=1;labelBackgroundColor=none;rounded=1;strokeWidth=9;" parent="UlAw6va3zdk-aPpLbyi_-28" vertex="1">
          <mxGeometry y="60" width="142" height="30" as="geometry" />
        </mxCell>
        <mxCell id="UlAw6va3zdk-aPpLbyi_-31" value="Item 3" style="text;strokeColor=none;fillColor=none;align=left;verticalAlign=middle;spacingLeft=4;spacingRight=4;overflow=hidden;points=[[0,0.5],[1,0.5]];portConstraint=eastwest;rotatable=0;whiteSpace=wrap;html=1;labelBackgroundColor=none;rounded=1;" parent="UlAw6va3zdk-aPpLbyi_-28" vertex="1">
          <mxGeometry y="90" width="142" height="30" as="geometry" />
        </mxCell>
        <mxCell id="kSR36_n-EsBhzUZEjCBZ-56" value="Patient 2 : CT Session" style="swimlane;fontStyle=0;childLayout=stackLayout;horizontal=1;startSize=30;horizontalStack=0;resizeParent=1;resizeParentMax=0;resizeLast=0;collapsible=1;marginBottom=0;whiteSpace=wrap;html=1;labelBackgroundColor=none;rounded=1;fillColor=#fad9d5;strokeColor=#ae4132;" parent="1" vertex="1">
          <mxGeometry x="1026" y="1765" width="140" height="90" as="geometry" />
        </mxCell>
        <mxCell id="kSR36_n-EsBhzUZEjCBZ-58" value="Scans 4" style="text;strokeColor=none;fillColor=none;align=left;verticalAlign=middle;spacingLeft=4;spacingRight=4;overflow=hidden;points=[[0,0.5],[1,0.5]];portConstraint=eastwest;rotatable=0;whiteSpace=wrap;html=1;labelBackgroundColor=none;rounded=1;" parent="kSR36_n-EsBhzUZEjCBZ-56" vertex="1">
          <mxGeometry y="30" width="140" height="30" as="geometry" />
        </mxCell>
        <mxCell id="kSR36_n-EsBhzUZEjCBZ-59" value="Result_4" style="text;strokeColor=none;fillColor=none;align=left;verticalAlign=middle;spacingLeft=4;spacingRight=4;overflow=hidden;points=[[0,0.5],[1,0.5]];portConstraint=eastwest;rotatable=0;whiteSpace=wrap;html=1;labelBackgroundColor=none;rounded=1;" parent="kSR36_n-EsBhzUZEjCBZ-56" vertex="1">
          <mxGeometry y="60" width="140" height="30" as="geometry" />
        </mxCell>
        <mxCell id="Kahp-PfNMKC5cr8vrNRb-167" value="" style="endArrow=none;html=1;rounded=0;entryX=0.012;entryY=0.865;entryDx=0;entryDy=0;entryPerimeter=0;" parent="1" target="kSR36_n-EsBhzUZEjCBZ-51" edge="1">
          <mxGeometry width="50" height="50" relative="1" as="geometry">
            <mxPoint x="448" y="1823" as="sourcePoint" />
            <mxPoint x="545" y="1826" as="targetPoint" />
          </mxGeometry>
        </mxCell>
        <mxCell id="Kahp-PfNMKC5cr8vrNRb-168" value="" style="endArrow=none;html=1;rounded=0;" parent="1" edge="1">
          <mxGeometry width="50" height="50" relative="1" as="geometry">
            <mxPoint x="688" y="1827" as="sourcePoint" />
            <mxPoint x="777" y="1827" as="targetPoint" />
          </mxGeometry>
        </mxCell>
        <mxCell id="Kahp-PfNMKC5cr8vrNRb-169" value="" style="endArrow=none;html=1;rounded=0;" parent="1" edge="1">
          <mxGeometry width="50" height="50" relative="1" as="geometry">
            <mxPoint x="918" y="1828" as="sourcePoint" />
            <mxPoint x="1026" y="1828" as="targetPoint" />
          </mxGeometry>
        </mxCell>
        <mxCell id="Kahp-PfNMKC5cr8vrNRb-180" value="" style="shape=partialRectangle;whiteSpace=wrap;html=1;bottom=0;right=0;fillColor=none;direction=south;" parent="1" vertex="1">
          <mxGeometry x="1167" y="1821.5" width="69" height="254.5" as="geometry" />
        </mxCell>
        <mxCell id="Kahp-PfNMKC5cr8vrNRb-197" value="" style="shape=note;whiteSpace=wrap;html=1;backgroundOutline=1;darkOpacity=0.05;" parent="1" vertex="1">
          <mxGeometry x="676.5" y="1872" width="215" height="252" as="geometry" />
        </mxCell>
        <mxCell id="Kahp-PfNMKC5cr8vrNRb-199" value="" style="shape=card;whiteSpace=wrap;html=1;fillColor=#f8cecc;strokeColor=#b85450;" parent="1" vertex="1">
          <mxGeometry x="694" y="1916" width="180" height="195.5" as="geometry" />
        </mxCell>
        <mxCell id="Kahp-PfNMKC5cr8vrNRb-200" value="&lt;div&gt;&quot;&lt;b&gt;&lt;i&gt;&lt;font style=&quot;color: rgb(126, 166, 224);&quot;&gt;command-line&lt;/font&gt;&lt;/i&gt;&lt;/b&gt;&quot;: &quot;python /app/Skript.py /input/data.csv /output/result.csv&quot;&lt;/div&gt;&lt;div&gt;&lt;br&gt;&lt;/div&gt;" style="text;html=1;align=center;verticalAlign=middle;whiteSpace=wrap;rounded=0;" parent="1" vertex="1">
          <mxGeometry x="734" y="1942" width="88" height="83.5" as="geometry" />
        </mxCell>
        <mxCell id="Kahp-PfNMKC5cr8vrNRb-202" value="" style="shape=partialRectangle;whiteSpace=wrap;html=1;bottom=0;right=0;fillColor=none;direction=north;" parent="1" vertex="1">
          <mxGeometry x="326.5" y="1855" width="72.5" height="542" as="geometry" />
        </mxCell>
        <mxCell id="Kahp-PfNMKC5cr8vrNRb-204" value="" style="shape=partialRectangle;whiteSpace=wrap;html=1;top=0;bottom=0;fillColor=none;" parent="1" vertex="1">
          <mxGeometry x="717" y="2124" width="133" height="171" as="geometry" />
        </mxCell>
        <mxCell id="Kahp-PfNMKC5cr8vrNRb-206" value="" style="shape=partialRectangle;whiteSpace=wrap;html=1;right=0;top=0;bottom=0;fillColor=none;routingCenterX=-0.5;direction=south;" parent="1" vertex="1">
          <mxGeometry x="521" y="2394" width="109" height="121" as="geometry" />
        </mxCell>
        <mxCell id="Kahp-PfNMKC5cr8vrNRb-209" value="" style="shape=partialRectangle;whiteSpace=wrap;html=1;bottom=0;right=0;fillColor=none;" parent="1" vertex="1">
          <mxGeometry x="460" y="2050" width="216" height="115" as="geometry" />
        </mxCell>
        <mxCell id="Kahp-PfNMKC5cr8vrNRb-211" value="&lt;font style=&quot;font-size: 18px;&quot;&gt;&lt;i&gt;Container läuft&amp;nbsp;&lt;/i&gt;&lt;/font&gt;" style="text;html=1;align=center;verticalAlign=middle;whiteSpace=wrap;rounded=0;" parent="1" vertex="1">
          <mxGeometry x="735" y="2185" width="96" height="49" as="geometry" />
        </mxCell>
        <mxCell id="Kahp-PfNMKC5cr8vrNRb-213" value="" style="shape=partialRectangle;whiteSpace=wrap;html=1;bottom=0;right=0;fillColor=none;direction=north;" parent="1" vertex="1">
          <mxGeometry x="142" y="3064" width="190" height="123" as="geometry" />
        </mxCell>
        <mxCell id="Kahp-PfNMKC5cr8vrNRb-216" value="" style="shape=partialRectangle;whiteSpace=wrap;html=1;top=0;left=0;fillColor=none;" parent="1" vertex="1">
          <mxGeometry x="1230" y="3124" width="150" height="62" as="geometry" />
        </mxCell>
        <mxCell id="Kahp-PfNMKC5cr8vrNRb-217" value="" style="shape=partialRectangle;whiteSpace=wrap;html=1;right=0;top=0;bottom=0;fillColor=none;routingCenterX=-0.5;direction=south;" parent="1" vertex="1">
          <mxGeometry x="462" y="3181" width="116" height="119" as="geometry" />
        </mxCell>
        <mxCell id="Kahp-PfNMKC5cr8vrNRb-220" value="" style="shape=partialRectangle;whiteSpace=wrap;html=1;right=0;top=0;bottom=0;fillColor=none;routingCenterX=-0.5;direction=south;" parent="1" vertex="1">
          <mxGeometry x="717" y="3181" width="113" height="119" as="geometry" />
        </mxCell>
        <mxCell id="Kahp-PfNMKC5cr8vrNRb-221" value="" style="shape=partialRectangle;whiteSpace=wrap;html=1;right=0;top=0;bottom=0;fillColor=none;routingCenterX=-0.5;direction=south;" parent="1" vertex="1">
          <mxGeometry x="972" y="3181" width="116" height="119" as="geometry" />
        </mxCell>
        <mxCell id="Kahp-PfNMKC5cr8vrNRb-225" style="edgeStyle=orthogonalEdgeStyle;rounded=0;orthogonalLoop=1;jettySize=auto;html=1;exitX=1;exitY=0;exitDx=0;exitDy=0;entryX=0;entryY=0.5;entryDx=0;entryDy=0;" parent="1" source="Kahp-PfNMKC5cr8vrNRb-222" target="Kahp-PfNMKC5cr8vrNRb-223" edge="1">
          <mxGeometry relative="1" as="geometry" />
        </mxCell>
        <mxCell id="Kahp-PfNMKC5cr8vrNRb-222" value="" style="shape=partialRectangle;whiteSpace=wrap;html=1;bottom=0;right=0;fillColor=none;" parent="1" vertex="1">
          <mxGeometry x="142" y="3006" width="498" height="58" as="geometry" />
        </mxCell>
        <mxCell id="Kahp-PfNMKC5cr8vrNRb-223" value="" style="ellipse;whiteSpace=wrap;html=1;aspect=fixed;" parent="1" vertex="1">
          <mxGeometry x="669" y="2924" width="180" height="180" as="geometry" />
        </mxCell>
        <mxCell id="Kahp-PfNMKC5cr8vrNRb-224" value="&lt;div&gt;&lt;b&gt;&lt;i&gt;&lt;font style=&quot;font-size: 17px;&quot;&gt;mounted to&lt;/font&gt;&lt;/i&gt;&lt;/b&gt;&lt;/div&gt;&lt;div&gt;&lt;font style=&quot;font-size: 17px;&quot;&gt;&lt;b style=&quot;&quot;&gt;&lt;i&gt;&amp;nbsp; &amp;nbsp;Container: /input/scans.cs&lt;/i&gt;&lt;/b&gt;v&lt;/font&gt;&lt;/div&gt;" style="text;html=1;align=center;verticalAlign=middle;whiteSpace=wrap;rounded=0;" parent="1" vertex="1">
          <mxGeometry x="713.5" y="2976.5" width="88" height="71.5" as="geometry" />
        </mxCell>
        <mxCell id="Kahp-PfNMKC5cr8vrNRb-226" value="" style="shape=partialRectangle;whiteSpace=wrap;html=1;bottom=0;right=0;fillColor=none;direction=south;" parent="1" vertex="1">
          <mxGeometry x="848" y="3007" width="532" height="118" as="geometry" />
        </mxCell>
        <mxCell id="Kahp-PfNMKC5cr8vrNRb-227" value="" style="shape=partialRectangle;whiteSpace=wrap;html=1;top=0;bottom=0;fillColor=none;" parent="1" vertex="1">
          <mxGeometry x="694" y="2552" width="132" height="400" as="geometry" />
        </mxCell>
        <mxCell id="Kahp-PfNMKC5cr8vrNRb-234" style="edgeStyle=orthogonalEdgeStyle;rounded=0;orthogonalLoop=1;jettySize=auto;html=1;exitX=0.5;exitY=1;exitDx=0;exitDy=0;" parent="1" edge="1">
          <mxGeometry relative="1" as="geometry">
            <mxPoint x="461.5" y="2730" as="sourcePoint" />
            <mxPoint x="461.5" y="2730" as="targetPoint" />
          </mxGeometry>
        </mxCell>
        <mxCell id="Kahp-PfNMKC5cr8vrNRb-237" value="&lt;font style=&quot;font-size: 16px;&quot;&gt;wird von XNAT gespeichert als Resource auf Scansrecource -Ebene&lt;/font&gt;" style="text;html=1;align=center;verticalAlign=middle;whiteSpace=wrap;rounded=0;rotation=90;" parent="1" vertex="1">
          <mxGeometry x="-276" y="2876" width="582" height="110" as="geometry" />
        </mxCell>
        <mxCell id="k0LQRtw4PnIv3PbsmUtW-1" value="&lt;div&gt;&lt;font style=&quot;color: rgb(51, 51, 255);&quot;&gt;&quot;external-inputs&quot;&lt;/font&gt;&lt;span style=&quot;background-color: transparent; color: light-dark(rgb(0, 0, 0), rgb(255, 255, 255));&quot;&gt;&amp;nbsp; &amp;nbsp; &amp;nbsp; : &quot;project&quot;,&lt;/span&gt;&lt;/div&gt;" style="text;html=1;align=center;verticalAlign=middle;whiteSpace=wrap;rounded=0;" parent="1" vertex="1">
          <mxGeometry x="1030.5" y="392" width="95" height="30" as="geometry" />
        </mxCell>
        <mxCell id="k0LQRtw4PnIv3PbsmUtW-2" value="&lt;div&gt;&lt;font style=&quot;color: rgb(51, 51, 255);&quot;&gt;Contexts&lt;/font&gt;:&lt;span style=&quot;background-color: transparent; color: light-dark(rgb(0, 0, 0), rgb(255, 255, 255));&quot;&gt;xnat:projectData&quot;&lt;/span&gt;&lt;/div&gt;" style="text;html=1;align=center;verticalAlign=middle;whiteSpace=wrap;rounded=0;" parent="1" vertex="1">
          <mxGeometry x="1048" y="426" width="60" height="30" as="geometry" />
        </mxCell>
        <mxCell id="Kahp-PfNMKC5cr8vrNRb-28" value="Automatically detect that the input is located in the project." style="text;html=1;align=center;verticalAlign=middle;whiteSpace=wrap;rounded=0;" parent="1" vertex="1">
          <mxGeometry x="782" y="285.5" width="136" height="38.5" as="geometry" />
        </mxCell>
        <mxCell id="k0LQRtw4PnIv3PbsmUtW-11" value="" style="shape=partialRectangle;whiteSpace=wrap;html=1;right=0;top=0;bottom=0;fillColor=none;routingCenterX=-0.5;direction=north;" parent="1" vertex="1">
          <mxGeometry x="731" y="226" width="243" height="125" as="geometry" />
        </mxCell>
        <mxCell id="k0LQRtw4PnIv3PbsmUtW-18" value="" style="shape=partialRectangle;whiteSpace=wrap;html=1;top=0;left=0;fillColor=none;direction=south;" parent="1" vertex="1">
          <mxGeometry x="652" y="382.5" width="461" height="117" as="geometry" />
        </mxCell>
        <mxCell id="k0LQRtw4PnIv3PbsmUtW-21" value="" style="shape=partialRectangle;whiteSpace=wrap;html=1;right=0;top=0;bottom=0;fillColor=none;routingCenterX=-0.5;direction=north;" parent="1" vertex="1">
          <mxGeometry x="711" y="961" width="243" height="125" as="geometry" />
        </mxCell>
        <mxCell id="k0LQRtw4PnIv3PbsmUtW-22" value="Automatically detect that the input is located in the Subject ." style="text;html=1;align=center;verticalAlign=middle;whiteSpace=wrap;rounded=0;" parent="1" vertex="1">
          <mxGeometry x="767" y="1025" width="136" height="38.5" as="geometry" />
        </mxCell>
        <mxCell id="k0LQRtw4PnIv3PbsmUtW-23" value="" style="shape=partialRectangle;whiteSpace=wrap;html=1;top=0;left=0;fillColor=none;direction=south;" parent="1" vertex="1">
          <mxGeometry x="630" y="1168" width="460" height="71" as="geometry" />
        </mxCell>
        <mxCell id="k0LQRtw4PnIv3PbsmUtW-28" value="&lt;div&gt;&lt;font style=&quot;color: rgb(51, 51, 255);&quot;&gt;&quot;external-inputs&quot;&lt;/font&gt;&lt;span style=&quot;background-color: transparent; color: light-dark(rgb(0, 0, 0), rgb(255, 255, 255));&quot;&gt;&amp;nbsp; &amp;nbsp; &amp;nbsp;Subjekt&lt;/span&gt;&lt;/div&gt;" style="text;html=1;align=center;verticalAlign=middle;whiteSpace=wrap;rounded=0;" parent="1" vertex="1">
          <mxGeometry x="1021" y="1108" width="95" height="30" as="geometry" />
        </mxCell>
        <mxCell id="k0LQRtw4PnIv3PbsmUtW-29" value="&lt;div&gt;&lt;font style=&quot;color: rgb(51, 51, 255);&quot;&gt;Contexts&lt;/font&gt;:&lt;span style=&quot;background-color: transparent; color: light-dark(rgb(0, 0, 0), rgb(255, 255, 255));&quot;&gt;xnat:SubjektData&quot;&lt;/span&gt;&lt;/div&gt;" style="text;html=1;align=center;verticalAlign=middle;whiteSpace=wrap;rounded=0;" parent="1" vertex="1">
          <mxGeometry x="1045.5" y="1138" width="60.5" height="30" as="geometry" />
        </mxCell>
        <mxCell id="k0LQRtw4PnIv3PbsmUtW-35" value="&lt;div&gt;&lt;font style=&quot;color: rgb(51, 51, 255);&quot;&gt;&quot;external-inputs&quot;&lt;/font&gt;&lt;span style=&quot;background-color: transparent; color: light-dark(rgb(0, 0, 0), rgb(255, 255, 255));&quot;&gt;&amp;nbsp; &amp;nbsp; &amp;nbsp;Session&lt;/span&gt;&lt;/div&gt;" style="text;html=1;align=center;verticalAlign=middle;whiteSpace=wrap;rounded=0;" parent="1" vertex="1">
          <mxGeometry x="735" y="2029" width="95" height="30" as="geometry" />
        </mxCell>
        <mxCell id="k0LQRtw4PnIv3PbsmUtW-36" value="&lt;div&gt;&lt;font style=&quot;color: rgb(51, 51, 255);&quot;&gt;Contexts&lt;/font&gt;:&lt;span style=&quot;background-color: transparent; color: light-dark(rgb(0, 0, 0), rgb(255, 255, 255));&quot;&gt;xnat:SessionData&quot;&lt;/span&gt;&lt;/div&gt;" style="text;html=1;align=center;verticalAlign=middle;whiteSpace=wrap;rounded=0;" parent="1" vertex="1">
          <mxGeometry x="750.5" y="2066" width="60.5" height="30" as="geometry" />
        </mxCell>
        <mxCell id="k0LQRtw4PnIv3PbsmUtW-40" value="Automatically detect that the input is located in the Session ." style="text;html=1;align=center;verticalAlign=middle;whiteSpace=wrap;rounded=0;" parent="1" vertex="1">
          <mxGeometry x="926" y="1876" width="204" height="38.5" as="geometry" />
        </mxCell>
        <mxCell id="Kahp-PfNMKC5cr8vrNRb-198" value="&lt;h4&gt;JSON Command&lt;/h4&gt;" style="text;html=1;align=center;verticalAlign=middle;whiteSpace=wrap;rounded=0;" parent="1" vertex="1">
          <mxGeometry x="747" y="1880.25" width="75" height="30" as="geometry" />
        </mxCell>
        <mxCell id="k0LQRtw4PnIv3PbsmUtW-43" value="" style="shape=partialRectangle;whiteSpace=wrap;html=1;right=0;top=0;bottom=0;fillColor=none;routingCenterX=-0.5;direction=south;" parent="1" vertex="1">
          <mxGeometry x="893" y="1942" width="298" height="95" as="geometry" />
        </mxCell>
        <mxCell id="k0LQRtw4PnIv3PbsmUtW-54" value="" style="shape=partialRectangle;whiteSpace=wrap;html=1;right=0;top=0;bottom=0;fillColor=none;routingCenterX=-0.5;direction=south;" parent="1" vertex="1">
          <mxGeometry x="527" y="2664" width="168" height="115.5" as="geometry" />
        </mxCell>
        <mxCell id="k0LQRtw4PnIv3PbsmUtW-56" style="edgeStyle=orthogonalEdgeStyle;rounded=0;orthogonalLoop=1;jettySize=auto;html=1;exitX=0.75;exitY=0;exitDx=0;exitDy=0;entryX=0.5;entryY=0;entryDx=0;entryDy=0;" parent="1" source="Kahp-PfNMKC5cr8vrNRb-230" target="Kahp-PfNMKC5cr8vrNRb-230" edge="1">
          <mxGeometry relative="1" as="geometry" />
        </mxCell>
        <mxCell id="k0LQRtw4PnIv3PbsmUtW-57" style="edgeStyle=orthogonalEdgeStyle;rounded=0;orthogonalLoop=1;jettySize=auto;html=1;exitX=0.25;exitY=0;exitDx=0;exitDy=0;entryX=0;entryY=0.25;entryDx=0;entryDy=0;" parent="1" source="Kahp-PfNMKC5cr8vrNRb-230" target="Kahp-PfNMKC5cr8vrNRb-230" edge="1">
          <mxGeometry relative="1" as="geometry" />
        </mxCell>
        <mxCell id="k0LQRtw4PnIv3PbsmUtW-59" value="" style="shape=partialRectangle;whiteSpace=wrap;html=1;bottom=0;right=0;fillColor=none;direction=west;" parent="1" vertex="1">
          <mxGeometry x="212" y="2730" width="251.5" height="99" as="geometry" />
        </mxCell>
        <mxCell id="k0LQRtw4PnIv3PbsmUtW-62" value="" style="shape=partialRectangle;whiteSpace=wrap;html=1;right=0;top=0;bottom=0;fillColor=none;routingCenterX=-0.5;" parent="1" vertex="1">
          <mxGeometry x="210" y="2614" width="120" height="217" as="geometry" />
        </mxCell>
        <mxCell id="k0LQRtw4PnIv3PbsmUtW-63" value="" style="shape=partialRectangle;whiteSpace=wrap;html=1;right=0;top=0;bottom=0;fillColor=none;routingCenterX=-0.5;" parent="1" vertex="1">
          <mxGeometry x="212" y="1843" width="120" height="650" as="geometry" />
        </mxCell>
        <mxCell id="k0LQRtw4PnIv3PbsmUtW-64" value="" style="shape=partialRectangle;whiteSpace=wrap;html=1;bottom=0;right=0;fillColor=none;" parent="1" vertex="1">
          <mxGeometry x="212" y="1726" width="29" height="117" as="geometry" />
        </mxCell>
        <mxCell id="k0LQRtw4PnIv3PbsmUtW-68" value="&lt;div&gt;&lt;font style=&quot;color: rgb(51, 51, 255);&quot;&gt;&quot;external-inputs&quot;&lt;/font&gt;&lt;span style=&quot;background-color: transparent; color: light-dark(rgb(0, 0, 0), rgb(255, 255, 255));&quot;&gt;&amp;nbsp; &amp;nbsp; &amp;nbsp;Scans&lt;/span&gt;&lt;/div&gt;" style="text;html=1;align=center;verticalAlign=middle;whiteSpace=wrap;rounded=0;" parent="1" vertex="1">
          <mxGeometry x="1041" y="2742" width="97" height="13" as="geometry" />
        </mxCell>
        <mxCell id="k0LQRtw4PnIv3PbsmUtW-69" value="&lt;div&gt;&lt;font style=&quot;color: rgb(51, 51, 255);&quot;&gt;Contexts&lt;/font&gt;:&lt;span style=&quot;background-color: transparent; color: light-dark(rgb(0, 0, 0), rgb(255, 255, 255));&quot;&gt;xnat:ScansData&quot;&lt;/span&gt;&lt;/div&gt;" style="text;html=1;align=center;verticalAlign=middle;whiteSpace=wrap;rounded=0;" parent="1" vertex="1">
          <mxGeometry x="1061.75" y="2764.5" width="60.5" height="30" as="geometry" />
        </mxCell>
        <mxCell id="k0LQRtw4PnIv3PbsmUtW-74" value="" style="shape=partialRectangle;whiteSpace=wrap;html=1;right=0;top=0;bottom=0;fillColor=none;routingCenterX=-0.5;direction=south;" parent="1" vertex="1">
          <mxGeometry x="826" y="2628" width="159" height="127" as="geometry" />
        </mxCell>
        <mxCell id="k0LQRtw4PnIv3PbsmUtW-75" value="" style="shape=partialRectangle;whiteSpace=wrap;html=1;bottom=0;right=0;fillColor=none;" parent="1" vertex="1">
          <mxGeometry x="754" y="2729" width="230" height="195" as="geometry" />
        </mxCell>
        <mxCell id="k0LQRtw4PnIv3PbsmUtW-78" value="&lt;font style=&quot;font-size: 29px;&quot;&gt;&lt;i style=&quot;&quot;&gt;Resource&lt;/i&gt;&lt;/font&gt;" style="text;html=1;align=center;verticalAlign=middle;whiteSpace=wrap;rounded=0;fontFamily=Times New Roman;" parent="1" vertex="1">
          <mxGeometry x="506" y="1710" width="543" height="30" as="geometry" />
        </mxCell>
        <mxCell id="eYfaTlFZ3kyvIrWRXn3H-1" value="Automatically detect that the input is located in the Scans ." style="text;html=1;align=center;verticalAlign=middle;whiteSpace=wrap;rounded=0;" parent="1" vertex="1">
          <mxGeometry x="958" y="2880" width="234" height="38.5" as="geometry" />
        </mxCell>
        <mxCell id="_wfHhxwGqeypHIdQk0kX-1" value="" style="ellipse;whiteSpace=wrap;html=1;shadow=1;" vertex="1" parent="1">
          <mxGeometry x="364" y="536" width="126" height="133" as="geometry" />
        </mxCell>
        <mxCell id="Kahp-PfNMKC5cr8vrNRb-71" value="&lt;b&gt;&quot;as-a-child-of&quot;&lt;/b&gt;&lt;div&gt;&lt;b&gt;:&lt;/b&gt;&quot;project&quot;&lt;b&gt;&lt;br&gt;&lt;/b&gt;&lt;div&gt;&lt;b&gt;=&lt;br&gt;&lt;/b&gt;Output-Bereich&lt;b&gt;&amp;nbsp;&lt;/b&gt;&lt;/div&gt;&lt;/div&gt;" style="text;html=1;align=center;verticalAlign=middle;whiteSpace=wrap;rounded=0;" parent="1" vertex="1">
          <mxGeometry x="364.5" y="546" width="131" height="119" as="geometry" />
        </mxCell>
        <mxCell id="_wfHhxwGqeypHIdQk0kX-2" value="" style="ellipse;whiteSpace=wrap;html=1;aspect=fixed;shadow=1;" vertex="1" parent="1">
          <mxGeometry x="1029" y="697" width="149" height="149" as="geometry" />
        </mxCell>
        <mxCell id="Kahp-PfNMKC5cr8vrNRb-49" value="&lt;div&gt;&lt;b&gt;&lt;i&gt;&lt;font style=&quot;font-size: 17px;&quot;&gt;Xnat mounted to&lt;/font&gt;&lt;/i&gt;&lt;/b&gt;&lt;/div&gt;&lt;div&gt;&lt;font style=&quot;font-size: 17px;&quot;&gt;&lt;b style=&quot;&quot;&gt;&lt;i&gt;&amp;nbsp; &amp;nbsp;Container: /input/data.cs&lt;/i&gt;&lt;/b&gt;v&lt;/font&gt;&lt;/div&gt;" style="text;html=1;align=center;verticalAlign=middle;whiteSpace=wrap;rounded=0;" parent="1" vertex="1">
          <mxGeometry x="1073.75" y="744" width="67" height="51" as="geometry" />
        </mxCell>
        <mxCell id="_wfHhxwGqeypHIdQk0kX-3" value="" style="ellipse;whiteSpace=wrap;html=1;aspect=fixed;shadow=1;" vertex="1" parent="1">
          <mxGeometry x="1071" y="546" width="80" height="80" as="geometry" />
        </mxCell>
        <mxCell id="k0LQRtw4PnIv3PbsmUtW-17" value="Temporäres Verzeichniss auf dem Host" style="text;html=1;align=center;verticalAlign=middle;whiteSpace=wrap;rounded=0;" parent="1" vertex="1">
          <mxGeometry x="1080.75" y="574" width="60" height="30" as="geometry" />
        </mxCell>
        <mxCell id="_wfHhxwGqeypHIdQk0kX-4" value="" style="ellipse;whiteSpace=wrap;html=1;aspect=fixed;shadow=1;" vertex="1" parent="1">
          <mxGeometry x="813" y="459" width="80" height="80" as="geometry" />
        </mxCell>
        <mxCell id="k0LQRtw4PnIv3PbsmUtW-20" value="&lt;font style=&quot;font-size: 14px;&quot;&gt;&lt;b&gt;Data/Files&lt;/b&gt;&lt;/font&gt;" style="text;html=1;align=center;verticalAlign=middle;whiteSpace=wrap;rounded=0;" parent="1" vertex="1">
          <mxGeometry x="813" y="482.5" width="76" height="33" as="geometry" />
        </mxCell>
        <mxCell id="_wfHhxwGqeypHIdQk0kX-6" value="" style="ellipse;whiteSpace=wrap;html=1;aspect=fixed;shadow=1;" vertex="1" parent="1">
          <mxGeometry x="252" y="715.75" width="112.5" height="112.5" as="geometry" />
        </mxCell>
        <mxCell id="Kahp-PfNMKC5cr8vrNRb-62" value="&lt;div&gt;&lt;b&gt;/output/result.csv&lt;/b&gt;&lt;/div&gt;&lt;div&gt;&lt;br&gt;&lt;/div&gt;" style="text;html=1;align=center;verticalAlign=middle;whiteSpace=wrap;rounded=0;" parent="1" vertex="1">
          <mxGeometry x="281" y="768" width="60" height="30" as="geometry" />
        </mxCell>
        <mxCell id="_wfHhxwGqeypHIdQk0kX-7" value="" style="shape=mxgraph.arrows2.wedgeArrow;html=1;bendable=0;startWidth=14.285714285714285;fillColor=strokeColor;defaultFillColor=invert;defaultGradientColor=invert;rounded=0;entryX=0.993;entryY=0.857;entryDx=0;entryDy=0;entryPerimeter=0;" edge="1" parent="1" target="k0LQRtw4PnIv3PbsmUtW-18">
          <mxGeometry width="100" height="100" relative="1" as="geometry">
            <mxPoint x="675" y="499" as="sourcePoint" />
            <mxPoint x="700" y="496" as="targetPoint" />
          </mxGeometry>
        </mxCell>
        <mxCell id="_wfHhxwGqeypHIdQk0kX-8" value="" style="shape=mxgraph.arrows2.wedgeArrow;html=1;bendable=0;startWidth=14.285714285714285;fillColor=strokeColor;defaultFillColor=invert;defaultGradientColor=invert;rounded=0;" edge="1" parent="1">
          <mxGeometry width="100" height="100" relative="1" as="geometry">
            <mxPoint x="786" y="349" as="sourcePoint" />
            <mxPoint x="755" y="349" as="targetPoint" />
          </mxGeometry>
        </mxCell>
        <mxCell id="_wfHhxwGqeypHIdQk0kX-9" value="" style="shape=mxgraph.arrows2.wedgeArrow;html=1;bendable=0;startWidth=14.285714285714285;fillColor=strokeColor;defaultFillColor=invert;defaultGradientColor=invert;rounded=0;entryX=0.993;entryY=0.857;entryDx=0;entryDy=0;entryPerimeter=0;" edge="1" parent="1">
          <mxGeometry width="100" height="100" relative="1" as="geometry">
            <mxPoint x="991" y="499.5" as="sourcePoint" />
            <mxPoint x="1034" y="499.5" as="targetPoint" />
          </mxGeometry>
        </mxCell>
        <mxCell id="_wfHhxwGqeypHIdQk0kX-10" value="" style="shape=mxgraph.arrows2.wedgeArrow;html=1;bendable=0;startWidth=14.285714285714285;fillColor=strokeColor;defaultFillColor=invert;defaultGradientColor=invert;rounded=0;entryX=0.997;entryY=0.182;entryDx=0;entryDy=0;entryPerimeter=0;" edge="1" parent="1" target="Kahp-PfNMKC5cr8vrNRb-65">
          <mxGeometry width="100" height="100" relative="1" as="geometry">
            <mxPoint x="1114" y="500" as="sourcePoint" />
            <mxPoint x="1151" y="505" as="targetPoint" />
          </mxGeometry>
        </mxCell>
        <mxCell id="_wfHhxwGqeypHIdQk0kX-11" value="" style="shape=mxgraph.arrows2.wedgeArrow;html=1;bendable=0;startWidth=14.285714285714285;fillColor=strokeColor;defaultFillColor=invert;defaultGradientColor=invert;rounded=0;entryX=0.997;entryY=0.182;entryDx=0;entryDy=0;entryPerimeter=0;exitX=1.002;exitY=0.076;exitDx=0;exitDy=0;exitPerimeter=0;" edge="1" parent="1">
          <mxGeometry width="100" height="100" relative="1" as="geometry">
            <mxPoint x="1115.25" y="653" as="sourcePoint" />
            <mxPoint x="1113.25" y="686" as="targetPoint" />
          </mxGeometry>
        </mxCell>
        <mxCell id="_wfHhxwGqeypHIdQk0kX-12" value="" style="shape=mxgraph.arrows2.wedgeArrow;html=1;bendable=0;startWidth=14.285714285714285;fillColor=strokeColor;defaultFillColor=invert;defaultGradientColor=invert;rounded=0;exitX=0.381;exitY=0.997;exitDx=0;exitDy=0;exitPerimeter=0;" edge="1" parent="1" source="Kahp-PfNMKC5cr8vrNRb-65">
          <mxGeometry width="100" height="100" relative="1" as="geometry">
            <mxPoint x="893" y="780" as="sourcePoint" />
            <mxPoint x="860" y="783" as="targetPoint" />
          </mxGeometry>
        </mxCell>
        <mxCell id="_wfHhxwGqeypHIdQk0kX-13" value="" style="shape=mxgraph.arrows2.wedgeArrow;html=1;bendable=0;startWidth=14.285714285714285;fillColor=strokeColor;defaultFillColor=invert;defaultGradientColor=invert;rounded=0;exitX=0.381;exitY=0.997;exitDx=0;exitDy=0;exitPerimeter=0;" edge="1" parent="1">
          <mxGeometry width="100" height="100" relative="1" as="geometry">
            <mxPoint x="495.5" y="777" as="sourcePoint" />
            <mxPoint x="458.5" y="777" as="targetPoint" />
          </mxGeometry>
        </mxCell>
        <mxCell id="_wfHhxwGqeypHIdQk0kX-14" value="" style="shape=mxgraph.arrows2.wedgeArrow;html=1;bendable=0;startWidth=14.285714285714285;fillColor=strokeColor;defaultFillColor=invert;defaultGradientColor=invert;rounded=0;exitX=0.381;exitY=0.997;exitDx=0;exitDy=0;exitPerimeter=0;" edge="1" parent="1">
          <mxGeometry width="100" height="100" relative="1" as="geometry">
            <mxPoint x="415.5" y="777" as="sourcePoint" />
            <mxPoint x="378.5" y="777" as="targetPoint" />
          </mxGeometry>
        </mxCell>
        <mxCell id="_wfHhxwGqeypHIdQk0kX-15" value="" style="shape=mxgraph.arrows2.wedgeArrow;html=1;bendable=0;startWidth=14.285714285714285;fillColor=strokeColor;defaultFillColor=invert;defaultGradientColor=invert;rounded=0;exitX=0.381;exitY=0.997;exitDx=0;exitDy=0;exitPerimeter=0;" edge="1" parent="1">
          <mxGeometry width="100" height="100" relative="1" as="geometry">
            <mxPoint x="859" y="410" as="sourcePoint" />
            <mxPoint x="822" y="410" as="targetPoint" />
          </mxGeometry>
        </mxCell>
        <mxCell id="_wfHhxwGqeypHIdQk0kX-16" value="" style="shape=mxgraph.arrows2.wedgeArrow;html=1;bendable=0;startWidth=14.285714285714285;fillColor=strokeColor;defaultFillColor=invert;defaultGradientColor=invert;rounded=0;entryX=0.002;entryY=0.667;entryDx=0;entryDy=0;entryPerimeter=0;exitX=-0.001;exitY=0.416;exitDx=0;exitDy=0;exitPerimeter=0;" edge="1" parent="1" source="Kahp-PfNMKC5cr8vrNRb-68" target="Kahp-PfNMKC5cr8vrNRb-68">
          <mxGeometry width="100" height="100" relative="1" as="geometry">
            <mxPoint x="427" y="463" as="sourcePoint" />
            <mxPoint x="425" y="496" as="targetPoint" />
          </mxGeometry>
        </mxCell>
        <mxCell id="_wfHhxwGqeypHIdQk0kX-17" value="" style="shape=mxgraph.arrows2.wedgeArrow;html=1;bendable=0;startWidth=14.285714285714285;fillColor=strokeColor;defaultFillColor=invert;defaultGradientColor=invert;rounded=0;entryX=0.002;entryY=0.667;entryDx=0;entryDy=0;entryPerimeter=0;exitX=-0.001;exitY=0.416;exitDx=0;exitDy=0;exitPerimeter=0;" edge="1" parent="1">
          <mxGeometry width="100" height="100" relative="1" as="geometry">
            <mxPoint x="426" y="707" as="sourcePoint" />
            <mxPoint x="428" y="739" as="targetPoint" />
          </mxGeometry>
        </mxCell>
        <mxCell id="_wfHhxwGqeypHIdQk0kX-18" value="" style="shape=mxgraph.arrows2.wedgeArrow;html=1;bendable=0;startWidth=14.285714285714285;fillColor=strokeColor;defaultFillColor=invert;defaultGradientColor=invert;rounded=0;exitX=0.803;exitY=0.822;exitDx=0;exitDy=0;exitPerimeter=0;" edge="1" parent="1" source="Kahp-PfNMKC5cr8vrNRb-67">
          <mxGeometry width="100" height="100" relative="1" as="geometry">
            <mxPoint x="216" y="605" as="sourcePoint" />
            <mxPoint x="179" y="605" as="targetPoint" />
          </mxGeometry>
        </mxCell>
        <mxCell id="_wfHhxwGqeypHIdQk0kX-19" value="" style="shape=mxgraph.arrows2.wedgeArrow;html=1;bendable=0;startWidth=14.285714285714285;fillColor=strokeColor;defaultFillColor=invert;defaultGradientColor=invert;rounded=0;exitX=0.803;exitY=0.822;exitDx=0;exitDy=0;exitPerimeter=0;" edge="1" parent="1">
          <mxGeometry width="100" height="100" relative="1" as="geometry">
            <mxPoint x="178" y="418" as="sourcePoint" />
            <mxPoint x="178" y="381" as="targetPoint" />
          </mxGeometry>
        </mxCell>
        <mxCell id="_wfHhxwGqeypHIdQk0kX-20" value="" style="shape=mxgraph.arrows2.wedgeArrow;html=1;bendable=0;startWidth=14.285714285714285;fillColor=strokeColor;defaultFillColor=invert;defaultGradientColor=invert;rounded=0;entryX=0.993;entryY=0.857;entryDx=0;entryDy=0;entryPerimeter=0;" edge="1" parent="1">
          <mxGeometry width="100" height="100" relative="1" as="geometry">
            <mxPoint x="262" y="324" as="sourcePoint" />
            <mxPoint x="305" y="324" as="targetPoint" />
          </mxGeometry>
        </mxCell>
        <mxCell id="_wfHhxwGqeypHIdQk0kX-21" value="" style="ellipse;whiteSpace=wrap;html=1;aspect=fixed;" vertex="1" parent="1">
          <mxGeometry x="357" y="1295" width="102" height="102" as="geometry" />
        </mxCell>
        <mxCell id="Kahp-PfNMKC5cr8vrNRb-117" value="&lt;b&gt;&quot;as-a-child-of&quot;&lt;/b&gt;&lt;div&gt;&lt;b&gt;:&lt;/b&gt;&quot;Subjekt&quot;&lt;b&gt;&lt;br&gt;&lt;/b&gt;&lt;div&gt;&lt;b&gt;=&lt;br&gt;&lt;/b&gt;Output-Bereich&lt;b&gt;&amp;nbsp;&lt;/b&gt;&lt;/div&gt;&lt;/div&gt;" style="text;html=1;align=center;verticalAlign=middle;whiteSpace=wrap;rounded=0;" parent="1" vertex="1">
          <mxGeometry x="339" y="1284" width="138" height="126" as="geometry" />
        </mxCell>
        <mxCell id="_wfHhxwGqeypHIdQk0kX-22" value="" style="ellipse;whiteSpace=wrap;html=1;aspect=fixed;" vertex="1" parent="1">
          <mxGeometry x="789" y="1187" width="80" height="80" as="geometry" />
        </mxCell>
        <mxCell id="k0LQRtw4PnIv3PbsmUtW-25" value="&lt;font style=&quot;font-size: 14px;&quot;&gt;&lt;b&gt;Data/Files&lt;/b&gt;&lt;/font&gt;" style="text;html=1;align=center;verticalAlign=middle;whiteSpace=wrap;rounded=0;" parent="1" vertex="1">
          <mxGeometry x="791" y="1214" width="76" height="33" as="geometry" />
        </mxCell>
        <mxCell id="_wfHhxwGqeypHIdQk0kX-23" value="" style="ellipse;whiteSpace=wrap;html=1;aspect=fixed;" vertex="1" parent="1">
          <mxGeometry x="1043" y="1254" width="87" height="87" as="geometry" />
        </mxCell>
        <mxCell id="k0LQRtw4PnIv3PbsmUtW-27" value="Temporäres Verzeichniss auf dem Host" style="text;html=1;align=center;verticalAlign=middle;whiteSpace=wrap;rounded=0;" parent="1" vertex="1">
          <mxGeometry x="1062.25" y="1287.25" width="60" height="30" as="geometry" />
        </mxCell>
        <mxCell id="_wfHhxwGqeypHIdQk0kX-24" value="" style="ellipse;whiteSpace=wrap;html=1;aspect=fixed;" vertex="1" parent="1">
          <mxGeometry x="212" y="1434" width="102" height="102" as="geometry" />
        </mxCell>
        <mxCell id="Kahp-PfNMKC5cr8vrNRb-108" value="&lt;div&gt;&lt;b&gt;/output/result.csv&lt;/b&gt;&lt;/div&gt;&lt;div&gt;&lt;br&gt;&lt;/div&gt;" style="text;html=1;align=center;verticalAlign=middle;whiteSpace=wrap;rounded=0;" parent="1" vertex="1">
          <mxGeometry x="239" y="1479" width="51.5" height="26" as="geometry" />
        </mxCell>
        <mxCell id="_wfHhxwGqeypHIdQk0kX-25" value="" style="shape=mxgraph.arrows2.wedgeArrow;html=1;bendable=0;startWidth=14.285714285714285;fillColor=strokeColor;defaultFillColor=invert;defaultGradientColor=invert;rounded=0;entryX=0.993;entryY=0.857;entryDx=0;entryDy=0;entryPerimeter=0;" edge="1" parent="1">
          <mxGeometry width="100" height="100" relative="1" as="geometry">
            <mxPoint x="688" y="1238" as="sourcePoint" />
            <mxPoint x="731" y="1238" as="targetPoint" />
          </mxGeometry>
        </mxCell>
        <mxCell id="_wfHhxwGqeypHIdQk0kX-28" value="" style="shape=mxgraph.arrows2.wedgeArrow;html=1;bendable=0;startWidth=14.285714285714285;fillColor=strokeColor;defaultFillColor=invert;defaultGradientColor=invert;rounded=0;exitX=0.381;exitY=0.997;exitDx=0;exitDy=0;exitPerimeter=0;" edge="1" parent="1">
          <mxGeometry width="100" height="100" relative="1" as="geometry">
            <mxPoint x="990" y="1504.07" as="sourcePoint" />
            <mxPoint x="953" y="1504.07" as="targetPoint" />
          </mxGeometry>
        </mxCell>
        <mxCell id="_wfHhxwGqeypHIdQk0kX-29" value="" style="shape=mxgraph.arrows2.wedgeArrow;html=1;bendable=0;startWidth=14.285714285714285;fillColor=strokeColor;defaultFillColor=invert;defaultGradientColor=invert;rounded=0;" edge="1" parent="1">
          <mxGeometry width="100" height="100" relative="1" as="geometry">
            <mxPoint x="407" y="1430" as="sourcePoint" />
            <mxPoint x="407.29" y="1461" as="targetPoint" />
          </mxGeometry>
        </mxCell>
        <mxCell id="_wfHhxwGqeypHIdQk0kX-32" value="" style="shape=mxgraph.arrows2.wedgeArrow;html=1;bendable=0;startWidth=12.857142857142861;fillColor=strokeColor;defaultFillColor=invert;defaultGradientColor=invert;rounded=0;exitX=0.381;exitY=0.997;exitDx=0;exitDy=0;exitPerimeter=0;" edge="1" parent="1">
          <mxGeometry width="100" height="100" relative="1" as="geometry">
            <mxPoint x="398" y="1488" as="sourcePoint" />
            <mxPoint x="361" y="1488" as="targetPoint" />
          </mxGeometry>
        </mxCell>
        <mxCell id="_wfHhxwGqeypHIdQk0kX-33" value="" style="shape=mxgraph.arrows2.wedgeArrow;html=1;bendable=0;startWidth=14.285714285714285;fillColor=strokeColor;defaultFillColor=invert;defaultGradientColor=invert;rounded=0;exitX=0;exitY=0.75;exitDx=0;exitDy=0;entryX=0.023;entryY=0.611;entryDx=0;entryDy=0;entryPerimeter=0;" edge="1" parent="1" source="Kahp-PfNMKC5cr8vrNRb-105" target="Kahp-PfNMKC5cr8vrNRb-105">
          <mxGeometry width="100" height="100" relative="1" as="geometry">
            <mxPoint x="155" y="1283" as="sourcePoint" />
            <mxPoint x="155" y="1246" as="targetPoint" />
          </mxGeometry>
        </mxCell>
        <mxCell id="_wfHhxwGqeypHIdQk0kX-34" value="" style="shape=mxgraph.arrows2.wedgeArrow;html=1;bendable=0;startWidth=14.285714285714285;fillColor=strokeColor;defaultFillColor=invert;defaultGradientColor=invert;rounded=0;entryX=0.993;entryY=0.857;entryDx=0;entryDy=0;entryPerimeter=0;" edge="1" parent="1">
          <mxGeometry width="100" height="100" relative="1" as="geometry">
            <mxPoint x="258" y="1041" as="sourcePoint" />
            <mxPoint x="301" y="1041" as="targetPoint" />
          </mxGeometry>
        </mxCell>
        <mxCell id="_wfHhxwGqeypHIdQk0kX-35" value="" style="shape=mxgraph.arrows2.wedgeArrow;html=1;bendable=0;startWidth=14.285714285714285;fillColor=strokeColor;defaultFillColor=invert;defaultGradientColor=invert;rounded=0;" edge="1" parent="1">
          <mxGeometry width="100" height="100" relative="1" as="geometry">
            <mxPoint x="848" y="1086.29" as="sourcePoint" />
            <mxPoint x="817" y="1086.29" as="targetPoint" />
          </mxGeometry>
        </mxCell>
        <mxCell id="_wfHhxwGqeypHIdQk0kX-36" value="" style="shape=mxgraph.arrows2.wedgeArrow;html=1;bendable=0;startWidth=14.285714285714285;fillColor=strokeColor;defaultFillColor=invert;defaultGradientColor=invert;rounded=0;exitX=0.381;exitY=0.997;exitDx=0;exitDy=0;exitPerimeter=0;" edge="1" parent="1">
          <mxGeometry width="100" height="100" relative="1" as="geometry">
            <mxPoint x="531" y="1175" as="sourcePoint" />
            <mxPoint x="494" y="1175" as="targetPoint" />
          </mxGeometry>
        </mxCell>
        <mxCell id="_wfHhxwGqeypHIdQk0kX-37" value="" style="shape=mxgraph.arrows2.wedgeArrow;html=1;bendable=0;startWidth=14.285714285714285;fillColor=strokeColor;defaultFillColor=invert;defaultGradientColor=invert;rounded=0;entryX=1;entryY=0;entryDx=0;entryDy=0;exitX=0.989;exitY=0.051;exitDx=0;exitDy=0;exitPerimeter=0;" edge="1" parent="1" source="Kahp-PfNMKC5cr8vrNRb-110" target="k0LQRtw4PnIv3PbsmUtW-23">
          <mxGeometry width="100" height="100" relative="1" as="geometry">
            <mxPoint x="1117" y="1220" as="sourcePoint" />
            <mxPoint x="1086" y="1220" as="targetPoint" />
          </mxGeometry>
        </mxCell>
        <mxCell id="_wfHhxwGqeypHIdQk0kX-40" value="" style="ellipse;whiteSpace=wrap;html=1;aspect=fixed;" vertex="1" parent="1">
          <mxGeometry x="405.5" y="2161" width="117" height="117" as="geometry" />
        </mxCell>
        <mxCell id="_wfHhxwGqeypHIdQk0kX-41" value="" style="ellipse;whiteSpace=wrap;html=1;aspect=fixed;" vertex="1" parent="1">
          <mxGeometry x="399.5" y="2340" width="123" height="123" as="geometry" />
        </mxCell>
        <mxCell id="_wfHhxwGqeypHIdQk0kX-42" value="" style="ellipse;whiteSpace=wrap;html=1;aspect=fixed;" vertex="1" parent="1">
          <mxGeometry x="1181" y="2040" width="109" height="109" as="geometry" />
        </mxCell>
        <mxCell id="_wfHhxwGqeypHIdQk0kX-43" value="" style="ellipse;whiteSpace=wrap;html=1;aspect=fixed;" vertex="1" parent="1">
          <mxGeometry x="1174" y="1902" width="107" height="107" as="geometry" />
        </mxCell>
        <mxCell id="k0LQRtw4PnIv3PbsmUtW-32" value="&lt;font style=&quot;font-size: 14px;&quot;&gt;&lt;b&gt;Data/Files&lt;/b&gt;&lt;/font&gt;" style="text;html=1;align=center;verticalAlign=middle;whiteSpace=wrap;rounded=0;" parent="1" vertex="1">
          <mxGeometry x="1190" y="1942" width="76" height="27" as="geometry" />
        </mxCell>
        <mxCell id="k0LQRtw4PnIv3PbsmUtW-34" value="Temporäres Verzeichniss auf dem Host" style="text;html=1;align=center;verticalAlign=middle;whiteSpace=wrap;rounded=0;" parent="1" vertex="1">
          <mxGeometry x="1205.5" y="2082" width="60" height="30" as="geometry" />
        </mxCell>
        <mxCell id="Kahp-PfNMKC5cr8vrNRb-151" value="&lt;div&gt;&lt;b&gt;/output/result.csv&lt;/b&gt;&lt;/div&gt;&lt;div&gt;&lt;br&gt;&lt;/div&gt;" style="text;html=1;align=center;verticalAlign=middle;whiteSpace=wrap;rounded=0;" parent="1" vertex="1">
          <mxGeometry x="438" y="2391.5" width="60" height="30" as="geometry" />
        </mxCell>
        <mxCell id="Kahp-PfNMKC5cr8vrNRb-160" value="&lt;b&gt;&quot;as-a-child-of&quot;&lt;/b&gt;&lt;div&gt;&lt;b&gt;:&lt;/b&gt;&quot;Session&quot;&lt;b&gt;&lt;br&gt;&lt;/b&gt;&lt;div&gt;&lt;b&gt;=&lt;br&gt;&lt;/b&gt;Output-Bereich&lt;b&gt;&amp;nbsp;&lt;/b&gt;&lt;/div&gt;&lt;/div&gt;" style="text;html=1;align=center;verticalAlign=middle;whiteSpace=wrap;rounded=0;" parent="1" vertex="1">
          <mxGeometry x="399.5" y="2161" width="131" height="119" as="geometry" />
        </mxCell>
        <mxCell id="_wfHhxwGqeypHIdQk0kX-44" value="" style="ellipse;whiteSpace=wrap;html=1;aspect=fixed;" vertex="1" parent="1">
          <mxGeometry x="264" y="2032" width="111.5" height="111.5" as="geometry" />
        </mxCell>
        <mxCell id="k0LQRtw4PnIv3PbsmUtW-66" value="Upload von Results_file wieder auf Ressourcen" style="text;html=1;align=center;verticalAlign=middle;whiteSpace=wrap;rounded=0;" parent="1" vertex="1">
          <mxGeometry x="292" y="2025.5" width="60" height="132" as="geometry" />
        </mxCell>
        <mxCell id="_wfHhxwGqeypHIdQk0kX-45" value="" style="shape=mxgraph.arrows2.wedgeArrow;html=1;bendable=0;startWidth=14.285714285714285;fillColor=strokeColor;defaultFillColor=invert;defaultGradientColor=invert;rounded=0;entryX=0.011;entryY=0.5;entryDx=0;entryDy=0;entryPerimeter=0;" edge="1" parent="1" target="k0LQRtw4PnIv3PbsmUtW-43">
          <mxGeometry width="100" height="100" relative="1" as="geometry">
            <mxPoint x="1080" y="1943" as="sourcePoint" />
            <mxPoint x="1052" y="1939" as="targetPoint" />
          </mxGeometry>
        </mxCell>
        <mxCell id="_wfHhxwGqeypHIdQk0kX-46" value="" style="shape=mxgraph.arrows2.wedgeArrow;html=1;bendable=0;startWidth=14.285714285714285;fillColor=strokeColor;defaultFillColor=invert;defaultGradientColor=invert;rounded=0;exitX=0;exitY=0;exitDx=0;exitDy=0;" edge="1" parent="1" source="Kahp-PfNMKC5cr8vrNRb-180">
          <mxGeometry width="100" height="100" relative="1" as="geometry">
            <mxPoint x="1231" y="1838" as="sourcePoint" />
            <mxPoint x="1237" y="1863" as="targetPoint" />
          </mxGeometry>
        </mxCell>
        <mxCell id="_wfHhxwGqeypHIdQk0kX-47" value="" style="shape=mxgraph.arrows2.wedgeArrow;html=1;bendable=0;startWidth=14.285714285714285;fillColor=strokeColor;defaultFillColor=invert;defaultGradientColor=invert;rounded=0;exitX=0.25;exitY=1;exitDx=0;exitDy=0;entryX=0.137;entryY=0.999;entryDx=0;entryDy=0;entryPerimeter=0;" edge="1" parent="1" source="Kahp-PfNMKC5cr8vrNRb-201" target="Kahp-PfNMKC5cr8vrNRb-201">
          <mxGeometry width="100" height="100" relative="1" as="geometry">
            <mxPoint x="985" y="2378" as="sourcePoint" />
            <mxPoint x="948" y="2378" as="targetPoint" />
          </mxGeometry>
        </mxCell>
        <mxCell id="_wfHhxwGqeypHIdQk0kX-48" value="" style="shape=mxgraph.arrows2.wedgeArrow;html=1;bendable=0;startWidth=14.285714285714285;fillColor=strokeColor;defaultFillColor=invert;defaultGradientColor=invert;rounded=0;exitX=0;exitY=0;exitDx=0;exitDy=0;" edge="1" parent="1">
          <mxGeometry width="100" height="100" relative="1" as="geometry">
            <mxPoint x="1235" y="2265" as="sourcePoint" />
            <mxPoint x="1236" y="2306" as="targetPoint" />
          </mxGeometry>
        </mxCell>
        <mxCell id="_wfHhxwGqeypHIdQk0kX-49" value="" style="shape=mxgraph.arrows2.wedgeArrow;html=1;bendable=0;startWidth=14.285714285714285;fillColor=strokeColor;defaultFillColor=invert;defaultGradientColor=invert;rounded=0;" edge="1" parent="1">
          <mxGeometry width="100" height="100" relative="1" as="geometry">
            <mxPoint x="587" y="2393" as="sourcePoint" />
            <mxPoint x="556" y="2393" as="targetPoint" />
          </mxGeometry>
        </mxCell>
        <mxCell id="_wfHhxwGqeypHIdQk0kX-52" value="" style="shape=mxgraph.arrows2.wedgeArrow;html=1;bendable=0;startWidth=14.285714285714285;fillColor=strokeColor;defaultFillColor=invert;defaultGradientColor=invert;rounded=0;" edge="1" parent="1">
          <mxGeometry width="100" height="100" relative="1" as="geometry">
            <mxPoint x="596" y="2046" as="sourcePoint" />
            <mxPoint x="554" y="2049" as="targetPoint" />
          </mxGeometry>
        </mxCell>
        <mxCell id="_wfHhxwGqeypHIdQk0kX-54" value="" style="shape=mxgraph.arrows2.wedgeArrow;html=1;bendable=0;startWidth=14.285714285714285;fillColor=strokeColor;defaultFillColor=invert;defaultGradientColor=invert;rounded=0;entryX=0;entryY=0;entryDx=0;entryDy=0;exitX=0;exitY=0.5;exitDx=0;exitDy=0;" edge="1" parent="1" source="Kahp-PfNMKC5cr8vrNRb-202" target="Kahp-PfNMKC5cr8vrNRb-202">
          <mxGeometry width="100" height="100" relative="1" as="geometry">
            <mxPoint x="356" y="2391" as="sourcePoint" />
            <mxPoint x="344" y="2386" as="targetPoint" />
          </mxGeometry>
        </mxCell>
        <mxCell id="_wfHhxwGqeypHIdQk0kX-56" value="" style="shape=mxgraph.arrows2.wedgeArrow;html=1;bendable=0;startWidth=14.285714285714285;fillColor=strokeColor;defaultFillColor=invert;defaultGradientColor=invert;rounded=0;exitX=0;exitY=0.75;exitDx=0;exitDy=0;entryX=0.023;entryY=0.611;entryDx=0;entryDy=0;entryPerimeter=0;" edge="1" parent="1">
          <mxGeometry width="100" height="100" relative="1" as="geometry">
            <mxPoint x="322" y="1990" as="sourcePoint" />
            <mxPoint x="326" y="1946" as="targetPoint" />
          </mxGeometry>
        </mxCell>
        <mxCell id="_wfHhxwGqeypHIdQk0kX-57" value="" style="ellipse;whiteSpace=wrap;html=1;aspect=fixed;" vertex="1" parent="1">
          <mxGeometry x="404.12" y="2619.88" width="126.88" height="126.88" as="geometry" />
        </mxCell>
        <mxCell id="Kahp-PfNMKC5cr8vrNRb-233" value="&lt;b&gt;&quot;as-a-child-of&quot;&lt;/b&gt;&lt;div&gt;&lt;b&gt;:&lt;/b&gt;&quot;Scans&quot;&lt;b&gt;&lt;br&gt;&lt;/b&gt;&lt;div&gt;&lt;b&gt;=&lt;br&gt;&lt;/b&gt;Output-Bereich&lt;b&gt;&amp;nbsp;&lt;/b&gt;&lt;/div&gt;&lt;/div&gt;" style="text;html=1;align=center;verticalAlign=middle;whiteSpace=wrap;rounded=0;" parent="1" vertex="1">
          <mxGeometry x="409" y="2632" width="131" height="119" as="geometry" />
        </mxCell>
        <mxCell id="_wfHhxwGqeypHIdQk0kX-58" value="" style="ellipse;whiteSpace=wrap;html=1;aspect=fixed;" vertex="1" parent="1">
          <mxGeometry x="155" y="2493" width="117" height="117" as="geometry" />
        </mxCell>
        <mxCell id="Kahp-PfNMKC5cr8vrNRb-230" value="&lt;div&gt;&lt;span style=&quot;font-size: 15px;&quot;&gt;&lt;b&gt;OUTPU_scans&lt;/b&gt;&lt;/span&gt;&lt;/div&gt;" style="text;html=1;align=center;verticalAlign=middle;whiteSpace=wrap;rounded=0;rotation=90;" parent="1" vertex="1">
          <mxGeometry x="181" y="2536" width="60" height="30" as="geometry" />
        </mxCell>
        <mxCell id="_wfHhxwGqeypHIdQk0kX-59" value="" style="ellipse;whiteSpace=wrap;html=1;aspect=fixed;" vertex="1" parent="1">
          <mxGeometry x="1223" y="2968" width="80" height="80" as="geometry" />
        </mxCell>
        <mxCell id="k0LQRtw4PnIv3PbsmUtW-48" value="&lt;span style=&quot;font-size: 14px;&quot;&gt;&lt;b&gt;Scans&lt;/b&gt;&lt;/span&gt;" style="text;html=1;align=center;verticalAlign=middle;whiteSpace=wrap;rounded=0;" parent="1" vertex="1">
          <mxGeometry x="1225" y="2996.5" width="76" height="27" as="geometry" />
        </mxCell>
        <mxCell id="_wfHhxwGqeypHIdQk0kX-60" value="" style="ellipse;whiteSpace=wrap;html=1;aspect=fixed;" vertex="1" parent="1">
          <mxGeometry x="990" y="2950.25" width="107" height="107" as="geometry" />
        </mxCell>
        <mxCell id="k0LQRtw4PnIv3PbsmUtW-52" value="Temporäres Verzeichniss auf dem Host" style="text;html=1;align=center;verticalAlign=middle;whiteSpace=wrap;rounded=0;" parent="1" vertex="1">
          <mxGeometry x="1011" y="2990.25" width="60" height="30" as="geometry" />
        </mxCell>
        <mxCell id="_wfHhxwGqeypHIdQk0kX-61" value="" style="ellipse;whiteSpace=wrap;html=1;aspect=fixed;" vertex="1" parent="1">
          <mxGeometry x="434" y="2948.75" width="110" height="110" as="geometry" />
        </mxCell>
        <mxCell id="k0LQRtw4PnIv3PbsmUtW-53" value="Temporäres Verzeichniss auf dem Host" style="text;html=1;align=center;verticalAlign=middle;whiteSpace=wrap;rounded=0;" parent="1" vertex="1">
          <mxGeometry x="463.5" y="2990.25" width="60" height="30" as="geometry" />
        </mxCell>
        <mxCell id="_wfHhxwGqeypHIdQk0kX-63" value="" style="ellipse;whiteSpace=wrap;html=1;aspect=fixed;" vertex="1" parent="1">
          <mxGeometry x="204.5" y="2963.75" width="80" height="80" as="geometry" />
        </mxCell>
        <mxCell id="k0LQRtw4PnIv3PbsmUtW-49" value="&lt;span style=&quot;font-size: 14px;&quot;&gt;&lt;b&gt;Scans&lt;/b&gt;&lt;/span&gt;" style="text;html=1;align=center;verticalAlign=middle;whiteSpace=wrap;rounded=0;" parent="1" vertex="1">
          <mxGeometry x="208.5" y="2993.25" width="76" height="27" as="geometry" />
        </mxCell>
        <mxCell id="_wfHhxwGqeypHIdQk0kX-64" value="" style="shape=mxgraph.arrows2.wedgeArrow;html=1;bendable=0;startWidth=14.285714285714285;fillColor=strokeColor;defaultFillColor=invert;defaultGradientColor=invert;rounded=0;exitX=0.25;exitY=1;exitDx=0;exitDy=0;entryX=0.137;entryY=0.999;entryDx=0;entryDy=0;entryPerimeter=0;" edge="1" parent="1">
          <mxGeometry width="100" height="100" relative="1" as="geometry">
            <mxPoint x="928" y="2730" as="sourcePoint" />
            <mxPoint x="889" y="2730" as="targetPoint" />
          </mxGeometry>
        </mxCell>
        <mxCell id="_wfHhxwGqeypHIdQk0kX-65" value="" style="shape=mxgraph.arrows2.wedgeArrow;html=1;bendable=0;startWidth=14.285714285714285;fillColor=strokeColor;defaultFillColor=invert;defaultGradientColor=invert;rounded=0;exitX=0.25;exitY=1;exitDx=0;exitDy=0;entryX=0.137;entryY=0.999;entryDx=0;entryDy=0;entryPerimeter=0;" edge="1" parent="1">
          <mxGeometry width="100" height="100" relative="1" as="geometry">
            <mxPoint x="630" y="2664" as="sourcePoint" />
            <mxPoint x="591" y="2664" as="targetPoint" />
          </mxGeometry>
        </mxCell>
        <mxCell id="_wfHhxwGqeypHIdQk0kX-66" value="" style="shape=mxgraph.arrows2.wedgeArrow;html=1;bendable=0;startWidth=14.285714285714285;fillColor=strokeColor;defaultFillColor=invert;defaultGradientColor=invert;rounded=0;exitX=0.25;exitY=1;exitDx=0;exitDy=0;entryX=0.137;entryY=0.999;entryDx=0;entryDy=0;entryPerimeter=0;" edge="1" parent="1">
          <mxGeometry width="100" height="100" relative="1" as="geometry">
            <mxPoint x="927" y="2625" as="sourcePoint" />
            <mxPoint x="888" y="2625" as="targetPoint" />
          </mxGeometry>
        </mxCell>
        <mxCell id="_wfHhxwGqeypHIdQk0kX-67" value="" style="shape=mxgraph.arrows2.wedgeArrow;html=1;bendable=0;startWidth=14.285714285714285;fillColor=strokeColor;defaultFillColor=invert;defaultGradientColor=invert;rounded=0;exitX=0.25;exitY=1;exitDx=0;exitDy=0;entryX=0.137;entryY=0.999;entryDx=0;entryDy=0;entryPerimeter=0;" edge="1" parent="1">
          <mxGeometry width="100" height="100" relative="1" as="geometry">
            <mxPoint x="366" y="2826" as="sourcePoint" />
            <mxPoint x="327" y="2826" as="targetPoint" />
          </mxGeometry>
        </mxCell>
        <mxCell id="_wfHhxwGqeypHIdQk0kX-68" value="" style="shape=mxgraph.arrows2.wedgeArrow;html=1;bendable=0;startWidth=14.285714285714285;fillColor=strokeColor;defaultFillColor=invert;defaultGradientColor=invert;rounded=0;entryX=0.023;entryY=0.611;entryDx=0;entryDy=0;entryPerimeter=0;" edge="1" parent="1">
          <mxGeometry width="100" height="100" relative="1" as="geometry">
            <mxPoint x="213" y="2323" as="sourcePoint" />
            <mxPoint x="212.5" y="2291" as="targetPoint" />
          </mxGeometry>
        </mxCell>
        <mxCell id="_wfHhxwGqeypHIdQk0kX-69" value="" style="shape=mxgraph.arrows2.wedgeArrow;html=1;bendable=0;startWidth=14.285714285714285;fillColor=strokeColor;defaultFillColor=invert;defaultGradientColor=invert;rounded=0;entryX=0.993;entryY=0.857;entryDx=0;entryDy=0;entryPerimeter=0;" edge="1" parent="1">
          <mxGeometry width="100" height="100" relative="1" as="geometry">
            <mxPoint x="1317" y="3188" as="sourcePoint" />
            <mxPoint x="1360" y="3188" as="targetPoint" />
          </mxGeometry>
        </mxCell>
        <mxCell id="_wfHhxwGqeypHIdQk0kX-70" value="" style="shape=mxgraph.arrows2.wedgeArrow;html=1;bendable=0;startWidth=14.285714285714285;fillColor=strokeColor;defaultFillColor=invert;defaultGradientColor=invert;rounded=0;exitX=0.25;exitY=1;exitDx=0;exitDy=0;entryX=0.137;entryY=0.999;entryDx=0;entryDy=0;entryPerimeter=0;" edge="1" parent="1">
          <mxGeometry width="100" height="100" relative="1" as="geometry">
            <mxPoint x="251" y="3187" as="sourcePoint" />
            <mxPoint x="212" y="3187" as="targetPoint" />
          </mxGeometry>
        </mxCell>
        <mxCell id="_wfHhxwGqeypHIdQk0kX-71" value="" style="shape=mxgraph.arrows2.wedgeArrow;html=1;bendable=0;startWidth=14.285714285714285;fillColor=strokeColor;defaultFillColor=invert;defaultGradientColor=invert;rounded=0;entryX=0.023;entryY=0.611;entryDx=0;entryDy=0;entryPerimeter=0;" edge="1" parent="1">
          <mxGeometry width="100" height="100" relative="1" as="geometry">
            <mxPoint x="141.5" y="3108" as="sourcePoint" />
            <mxPoint x="141" y="3076" as="targetPoint" />
          </mxGeometry>
        </mxCell>
        <mxCell id="_wfHhxwGqeypHIdQk0kX-72" value="" style="shape=mxgraph.arrows2.wedgeArrow;html=1;bendable=0;startWidth=14.285714285714285;fillColor=strokeColor;defaultFillColor=invert;defaultGradientColor=invert;rounded=0;entryX=0.023;entryY=0.611;entryDx=0;entryDy=0;entryPerimeter=0;" edge="1" parent="1">
          <mxGeometry width="100" height="100" relative="1" as="geometry">
            <mxPoint x="1380.5" y="3090.75" as="sourcePoint" />
            <mxPoint x="1380" y="3058.75" as="targetPoint" />
          </mxGeometry>
        </mxCell>
        <mxCell id="_wfHhxwGqeypHIdQk0kX-73" value="" style="shape=mxgraph.arrows2.wedgeArrow;html=1;bendable=0;startWidth=14.285714285714285;fillColor=strokeColor;defaultFillColor=invert;defaultGradientColor=invert;rounded=0;exitX=0.25;exitY=1;exitDx=0;exitDy=0;entryX=0.137;entryY=0.999;entryDx=0;entryDy=0;entryPerimeter=0;" edge="1" parent="1">
          <mxGeometry width="100" height="100" relative="1" as="geometry">
            <mxPoint x="951" y="3006.04" as="sourcePoint" />
            <mxPoint x="912" y="3006.04" as="targetPoint" />
          </mxGeometry>
        </mxCell>
        <mxCell id="_wfHhxwGqeypHIdQk0kX-74" value="" style="shape=mxgraph.arrows2.wedgeArrow;html=1;bendable=0;startWidth=14.285714285714285;fillColor=strokeColor;defaultFillColor=invert;defaultGradientColor=invert;rounded=0;entryX=0.993;entryY=0.857;entryDx=0;entryDy=0;entryPerimeter=0;" edge="1" parent="1">
          <mxGeometry width="100" height="100" relative="1" as="geometry">
            <mxPoint x="583" y="3006" as="sourcePoint" />
            <mxPoint x="626" y="3006" as="targetPoint" />
          </mxGeometry>
        </mxCell>
      </root>
    </mxGraphModel>
  </diagram>
</mxfile>
